<svg width="592" height="442" viewBox="0 0 592 442" fill="none" xmlns="http://www.w3.org/2000/svg">
<g filter="url(#filter0_d)">
<path d="M524.736 75.4874H149.726V22.8246C149.726 15.7301 155.451 10 162.539 10H511.651C518.83 10 524.736 15.8211 524.736 23.0975V75.4874Z" fill="#D93464"/>
<path d="M149.726 52.7487H524.736V310.703C524.736 318.435 518.468 324.703 510.736 324.703H163.726C155.994 324.703 149.726 318.435 149.726 310.703V52.7487Z" fill="white"/>
<g opacity="0.06" filter="url(#filter1_d)">
<rect x="350.992" y="70.852" width="149.276" height="236.06" rx="4" fill="white"/>
<rect x="351.742" y="71.602" width="147.776" height="234.56" rx="3.25" stroke="#D93464" stroke-width="1.5"/>
</g>
<path d="M350.992 74.852C350.992 72.6429 352.783 70.852 354.992 70.852H496.268C498.477 70.852 500.268 72.6429 500.268 74.852V92.2254C500.268 94.4346 498.477 96.2254 496.268 96.2254H354.992C352.783 96.2254 350.992 94.4346 350.992 92.2254V74.852Z" fill="#D93464" fill-opacity="0.3"/>
<path opacity="0.16" d="M214.334 40.6469H183.933C178.563 40.6469 174.194 36.2811 174.194 30.9148C174.194 25.5484 178.563 21.1826 183.933 21.1826H214.425C219.796 21.1826 224.165 25.5484 224.165 30.9148C224.165 36.2811 219.796 40.6469 214.334 40.6469Z" fill="white"/>
<g opacity="0.16" filter="url(#filter2_d)">
<rect x="472.745" y="25.7303" width="32.7678" height="11.8241" rx="5.91206" fill="white"/>
</g>
<g opacity="0.5" filter="url(#filter3_d)">
<rect x="434.516" y="25.7303" width="32.7678" height="11.8241" rx="5.91206" fill="white"/>
</g>
<g opacity="0.16" filter="url(#filter4_d)">
<rect x="396.287" y="25.7303" width="32.7678" height="11.8241" rx="5.91206" fill="white"/>
</g>
<path opacity="0.9" d="M431.893 77.39H419.368V89.9061H431.893V77.39Z" stroke="#D93464" stroke-width="1.5" stroke-miterlimit="10" stroke-linejoin="round"/>
<rect opacity="0.75" x="365.592" y="109.409" width="120.077" height="84.5879" rx="6" fill="#D93464" fill-opacity="0.15"/>
<rect opacity="0.5" x="405.642" y="124.871" width="35.4265" height="8.18593" rx="4.09296" fill="#D93464"/>
<rect opacity="0.5" x="405.642" y="141.243" width="35.4265" height="8.18593" rx="4.09296" fill="#D93464"/>
<rect opacity="0.5" x="452.446" y="175.538" width="23.345" height="8.18593" rx="4.09296" fill="#D93464"/>
<path d="M475.705 137.687C475.705 138.54 475.407 139.26 474.809 139.847C474.223 140.434 473.428 140.802 472.425 140.951V141.959C472.425 142.204 472.351 142.402 472.201 142.551C472.052 142.711 471.855 142.791 471.609 142.791C471.364 142.791 471.167 142.711 471.017 142.551C470.868 142.402 470.793 142.204 470.793 141.959V140.983C470.185 140.93 469.593 140.802 469.017 140.599C468.441 140.396 467.945 140.13 467.529 139.799C467.391 139.703 467.295 139.596 467.241 139.479C467.188 139.362 467.161 139.218 467.161 139.047C467.161 138.823 467.225 138.626 467.353 138.455C467.492 138.284 467.647 138.199 467.817 138.199C467.924 138.199 468.02 138.22 468.105 138.263C468.201 138.295 468.324 138.354 468.473 138.439C468.964 138.759 469.444 138.994 469.913 139.143C470.393 139.292 470.895 139.367 471.417 139.367C472.132 139.367 472.681 139.228 473.065 138.951C473.46 138.674 473.657 138.274 473.657 137.751C473.657 137.442 473.551 137.191 473.337 136.999C473.124 136.807 472.857 136.658 472.537 136.551C472.217 136.434 471.769 136.3 471.193 136.151C470.393 135.948 469.743 135.746 469.241 135.543C468.74 135.33 468.308 135.01 467.945 134.583C467.583 134.156 467.401 133.58 467.401 132.855C467.401 131.991 467.711 131.255 468.329 130.647C468.948 130.039 469.759 129.66 470.761 129.511V128.503C470.761 128.258 470.836 128.06 470.985 127.911C471.135 127.751 471.332 127.671 471.577 127.671C471.823 127.671 472.02 127.751 472.169 127.911C472.319 128.06 472.393 128.258 472.393 128.503V129.495C473.471 129.634 474.399 130.023 475.177 130.663C475.433 130.855 475.561 131.106 475.561 131.415C475.561 131.639 475.492 131.836 475.353 132.007C475.225 132.178 475.071 132.263 474.889 132.263C474.793 132.263 474.697 132.247 474.601 132.215C474.516 132.183 474.399 132.119 474.249 132.023C473.812 131.714 473.396 131.484 473.001 131.335C472.617 131.175 472.159 131.095 471.625 131.095C470.964 131.095 470.436 131.244 470.041 131.543C469.647 131.831 469.449 132.231 469.449 132.743C469.449 133.095 469.561 133.383 469.785 133.607C470.009 133.82 470.292 133.986 470.633 134.103C470.975 134.22 471.439 134.354 472.025 134.503C472.804 134.695 473.439 134.892 473.929 135.095C474.42 135.298 474.836 135.607 475.177 136.023C475.529 136.428 475.705 136.983 475.705 137.687Z" fill="#D93464"/>
<path opacity="0.16" d="M386.437 140.151C392.921 140.151 398.178 134.898 398.178 128.418C398.178 121.938 392.921 116.685 386.437 116.685C379.952 116.685 374.695 121.938 374.695 128.418C374.695 134.898 379.952 140.151 386.437 140.151Z" fill="#D93464"/>
<mask id="mask0" mask-type="alpha" maskUnits="userSpaceOnUse" x="374" y="116" width="25" height="25">
<path d="M386.437 140.151C392.921 140.151 398.178 134.898 398.178 128.418C398.178 121.938 392.921 116.685 386.437 116.685C379.952 116.685 374.695 121.938 374.695 128.418C374.695 134.898 379.952 140.151 386.437 140.151Z" fill="#D93464"/>
</mask>
<g mask="url(#mask0)">
<path d="M386.436 131.147C388.698 131.147 390.532 129.314 390.532 127.054C390.532 124.793 388.698 122.961 386.436 122.961C384.174 122.961 382.34 124.793 382.34 127.054C382.34 129.314 384.174 131.147 386.436 131.147Z" stroke="#D93464" stroke-width="1.88" stroke-miterlimit="10"/>
<path d="M394.082 137.878C393.627 134.057 390.35 131.147 386.436 131.147C382.522 131.147 379.245 134.057 378.79 137.878" stroke="#D93464" stroke-width="1.88" stroke-miterlimit="10"/>
</g>
<path d="M392.492 174.779L399.091 170.459" stroke="#D93464" stroke-opacity="0.5" stroke-width="1.5" stroke-linecap="round" stroke-linejoin="round"/>
<path d="M403.357 170.345L410.127 171.937" stroke="#D93464" stroke-opacity="0.5" stroke-width="1.5"/>
<path d="M414.281 170.971L422.586 165.684" stroke="#D93464" stroke-opacity="0.5" stroke-width="1.5"/>
<path d="M403.266 170.006C403.266 171.119 402.363 172.022 401.248 172.022C400.132 172.022 399.229 171.119 399.229 170.006C399.229 168.893 400.132 167.99 401.248 167.99C402.363 167.99 403.266 168.893 403.266 170.006Z" stroke="#D93464" stroke-width="1.5"/>
<path d="M414.3 171.85C414.3 172.962 413.397 173.866 412.282 173.866C411.167 173.866 410.264 172.962 410.264 171.85C410.264 170.737 411.167 169.834 412.282 169.834C413.397 169.834 414.3 170.737 414.3 171.85Z" stroke="#D93464" stroke-width="1.5"/>
<path d="M392.506 175.538C392.506 176.651 391.603 177.554 390.488 177.554C389.373 177.554 388.47 176.651 388.47 175.538C388.47 174.425 389.373 173.522 390.488 173.522C391.603 173.522 392.506 174.425 392.506 175.538Z" stroke="#D93464" stroke-width="1.5"/>
<path d="M426.21 164.474C426.21 165.587 425.307 166.49 424.192 166.49C423.077 166.49 422.174 165.587 422.174 164.474C422.174 163.361 423.077 162.458 424.192 162.458C425.307 162.458 426.21 163.361 426.21 164.474Z" stroke="#D93464" stroke-width="1.5"/>
<g opacity="0.06" filter="url(#filter5_d)">
<rect x="174.194" y="70.852" width="149.276" height="236.06" rx="4" fill="white"/>
<rect x="174.944" y="71.602" width="147.776" height="234.56" rx="3.25" stroke="#D93464" stroke-width="1.5"/>
</g>
<path d="M174.194 74.852C174.194 72.6429 175.984 70.852 178.194 70.852H319.469C321.678 70.852 323.469 72.6429 323.469 74.852V92.2254C323.469 94.4346 321.678 96.2254 319.469 96.2254H178.194C175.984 96.2254 174.194 94.4346 174.194 92.2254V74.852Z" fill="#D93464" fill-opacity="0.3"/>
<rect opacity="0.75" x="188.793" y="109.409" width="120.077" height="84.5879" rx="6" fill="#D93464" fill-opacity="0.15"/>
<rect opacity="0.5" x="228.843" y="124.871" width="35.4265" height="8.18593" rx="4.09296" fill="#D93464"/>
<rect opacity="0.5" x="228.843" y="141.243" width="35.4265" height="8.18593" rx="4.09296" fill="#D93464"/>
<rect opacity="0.5" x="275.647" y="175.538" width="23.345" height="8.18593" rx="4.09296" fill="#D93464"/>
<path d="M298.906 137.687C298.906 138.54 298.608 139.26 298.01 139.847C297.424 140.434 296.629 140.802 295.626 140.951V141.959C295.626 142.204 295.552 142.402 295.402 142.551C295.253 142.711 295.056 142.791 294.81 142.791C294.565 142.791 294.368 142.711 294.218 142.551C294.069 142.402 293.994 142.204 293.994 141.959V140.983C293.386 140.93 292.794 140.802 292.218 140.599C291.642 140.396 291.146 140.13 290.73 139.799C290.592 139.703 290.496 139.596 290.442 139.479C290.389 139.362 290.362 139.218 290.362 139.047C290.362 138.823 290.426 138.626 290.554 138.455C290.693 138.284 290.848 138.199 291.018 138.199C291.125 138.199 291.221 138.22 291.306 138.263C291.402 138.295 291.525 138.354 291.674 138.439C292.165 138.759 292.645 138.994 293.114 139.143C293.594 139.292 294.096 139.367 294.618 139.367C295.333 139.367 295.882 139.228 296.266 138.951C296.661 138.674 296.858 138.274 296.858 137.751C296.858 137.442 296.752 137.191 296.538 136.999C296.325 136.807 296.058 136.658 295.738 136.551C295.418 136.434 294.97 136.3 294.394 136.151C293.594 135.948 292.944 135.746 292.442 135.543C291.941 135.33 291.509 135.01 291.146 134.583C290.784 134.156 290.602 133.58 290.602 132.855C290.602 131.991 290.912 131.255 291.53 130.647C292.149 130.039 292.96 129.66 293.962 129.511V128.503C293.962 128.258 294.037 128.06 294.186 127.911C294.336 127.751 294.533 127.671 294.778 127.671C295.024 127.671 295.221 127.751 295.37 127.911C295.52 128.06 295.594 128.258 295.594 128.503V129.495C296.672 129.634 297.6 130.023 298.378 130.663C298.634 130.855 298.762 131.106 298.762 131.415C298.762 131.639 298.693 131.836 298.554 132.007C298.426 132.178 298.272 132.263 298.09 132.263C297.994 132.263 297.898 132.247 297.802 132.215C297.717 132.183 297.6 132.119 297.45 132.023C297.013 131.714 296.597 131.484 296.202 131.335C295.818 131.175 295.36 131.095 294.826 131.095C294.165 131.095 293.637 131.244 293.242 131.543C292.848 131.831 292.65 132.231 292.65 132.743C292.65 133.095 292.762 133.383 292.986 133.607C293.21 133.82 293.493 133.986 293.834 134.103C294.176 134.22 294.64 134.354 295.226 134.503C296.005 134.695 296.64 134.892 297.13 135.095C297.621 135.298 298.037 135.607 298.378 136.023C298.73 136.428 298.906 136.983 298.906 137.687Z" fill="#D93464"/>
<path opacity="0.16" d="M209.637 140.151C216.122 140.151 221.379 134.898 221.379 128.418C221.379 121.938 216.122 116.685 209.637 116.685C203.152 116.685 197.895 121.938 197.895 128.418C197.895 134.898 203.152 140.151 209.637 140.151Z" fill="#D93464"/>
<mask id="mask1" mask-type="alpha" maskUnits="userSpaceOnUse" x="197" y="116" width="25" height="25">
<path d="M209.637 140.151C216.122 140.151 221.379 134.898 221.379 128.418C221.379 121.938 216.122 116.685 209.637 116.685C203.152 116.685 197.895 121.938 197.895 128.418C197.895 134.898 203.152 140.151 209.637 140.151Z" fill="#D93464"/>
</mask>
<g mask="url(#mask1)">
<path d="M209.637 131.147C211.899 131.147 213.733 129.314 213.733 127.054C213.733 124.793 211.899 122.961 209.637 122.961C207.375 122.961 205.541 124.793 205.541 127.054C205.541 129.314 207.375 131.147 209.637 131.147Z" stroke="#D93464" stroke-width="1.88" stroke-miterlimit="10"/>
<path d="M217.283 137.878C216.828 134.057 213.551 131.147 209.637 131.147C205.723 131.147 202.446 134.057 201.991 137.878" stroke="#D93464" stroke-width="1.88" stroke-miterlimit="10"/>
</g>
<path d="M215.693 174.779L222.292 170.459" stroke="#D93464" stroke-opacity="0.5" stroke-width="1.5" stroke-linecap="round" stroke-linejoin="round"/>
<path d="M226.559 170.345L233.329 171.937" stroke="#D93464" stroke-opacity="0.5" stroke-width="1.5"/>
<path d="M237.481 170.971L245.787 165.684" stroke="#D93464" stroke-opacity="0.5" stroke-width="1.5"/>
<path d="M226.467 170.006C226.467 171.119 225.564 172.022 224.448 172.022C223.333 172.022 222.43 171.119 222.43 170.006C222.43 168.893 223.333 167.99 224.448 167.99C225.564 167.99 226.467 168.893 226.467 170.006Z" stroke="#D93464" stroke-width="1.5"/>
<path d="M237.501 171.85C237.501 172.962 236.598 173.866 235.483 173.866C234.368 173.866 233.465 172.962 233.465 171.85C233.465 170.737 234.368 169.834 235.483 169.834C236.598 169.834 237.501 170.737 237.501 171.85Z" stroke="#D93464" stroke-width="1.5"/>
<path d="M215.708 175.538C215.708 176.651 214.805 177.554 213.69 177.554C212.575 177.554 211.672 176.651 211.672 175.538C211.672 174.425 212.575 173.522 213.69 173.522C214.805 173.522 215.708 174.425 215.708 175.538Z" stroke="#D93464" stroke-width="1.5"/>
<path d="M249.411 164.474C249.411 165.587 248.508 166.49 247.393 166.49C246.278 166.49 245.375 165.587 245.375 164.474C245.375 163.361 246.278 162.458 247.393 162.458C248.508 162.458 249.411 163.361 249.411 164.474Z" stroke="#D93464" stroke-width="1.5"/>
<rect opacity="0.75" x="188.793" y="204.911" width="120.077" height="84.5879" rx="6" fill="#D93464" fill-opacity="0.08"/>
<rect opacity="0.15" x="228.843" y="220.374" width="35.4265" height="8.18593" rx="4.09296" fill="#D93464"/>
<rect opacity="0.15" x="228.843" y="236.745" width="35.4265" height="8.18593" rx="4.09296" fill="#D93464"/>
<rect opacity="0.15" x="275.647" y="271.04" width="23.345" height="8.18593" rx="4.09296" fill="#D93464"/>
<path opacity="0.8" d="M298.906 233.19C298.906 234.043 298.608 234.763 298.01 235.35C297.424 235.936 296.629 236.304 295.626 236.454V237.462C295.626 237.707 295.552 237.904 295.402 238.054C295.253 238.214 295.056 238.294 294.81 238.294C294.565 238.294 294.368 238.214 294.218 238.054C294.069 237.904 293.994 237.707 293.994 237.462V236.486C293.386 236.432 292.794 236.304 292.218 236.102C291.642 235.899 291.146 235.632 290.73 235.302C290.592 235.206 290.496 235.099 290.442 234.982C290.389 234.864 290.362 234.72 290.362 234.55C290.362 234.326 290.426 234.128 290.554 233.958C290.693 233.787 290.848 233.702 291.018 233.702C291.125 233.702 291.221 233.723 291.306 233.766C291.402 233.798 291.525 233.856 291.674 233.942C292.165 234.262 292.645 234.496 293.114 234.646C293.594 234.795 294.096 234.87 294.618 234.87C295.333 234.87 295.882 234.731 296.266 234.454C296.661 234.176 296.858 233.776 296.858 233.254C296.858 232.944 296.752 232.694 296.538 232.502C296.325 232.31 296.058 232.16 295.738 232.054C295.418 231.936 294.97 231.803 294.394 231.654C293.594 231.451 292.944 231.248 292.442 231.046C291.941 230.832 291.509 230.512 291.146 230.086C290.784 229.659 290.602 229.083 290.602 228.358C290.602 227.494 290.912 226.758 291.53 226.15C292.149 225.542 292.96 225.163 293.962 225.014V224.006C293.962 223.76 294.037 223.563 294.186 223.414C294.336 223.254 294.533 223.174 294.778 223.174C295.024 223.174 295.221 223.254 295.37 223.414C295.52 223.563 295.594 223.76 295.594 224.006V224.998C296.672 225.136 297.6 225.526 298.378 226.166C298.634 226.358 298.762 226.608 298.762 226.918C298.762 227.142 298.693 227.339 298.554 227.51C298.426 227.68 298.272 227.766 298.09 227.766C297.994 227.766 297.898 227.75 297.802 227.718C297.717 227.686 297.6 227.622 297.45 227.526C297.013 227.216 296.597 226.987 296.202 226.838C295.818 226.678 295.36 226.598 294.826 226.598C294.165 226.598 293.637 226.747 293.242 227.046C292.848 227.334 292.65 227.734 292.65 228.246C292.65 228.598 292.762 228.886 292.986 229.11C293.21 229.323 293.493 229.488 293.834 229.606C294.176 229.723 294.64 229.856 295.226 230.006C296.005 230.198 296.64 230.395 297.13 230.598C297.621 230.8 298.037 231.11 298.378 231.526C298.73 231.931 298.906 232.486 298.906 233.19Z" fill="#D93464"/>
<g opacity="0.8">
<path opacity="0.16" d="M209.637 235.654C216.122 235.654 221.379 230.401 221.379 223.921C221.379 217.441 216.122 212.188 209.637 212.188C203.152 212.188 197.895 217.441 197.895 223.921C197.895 230.401 203.152 235.654 209.637 235.654Z" fill="#D93464"/>
<mask id="mask2" mask-type="alpha" maskUnits="userSpaceOnUse" x="197" y="212" width="25" height="24">
<path d="M209.637 235.654C216.122 235.654 221.379 230.401 221.379 223.921C221.379 217.441 216.122 212.188 209.637 212.188C203.152 212.188 197.895 217.441 197.895 223.921C197.895 230.401 203.152 235.654 209.637 235.654Z" fill="#D93464"/>
</mask>
<g mask="url(#mask2)">
<path d="M209.637 226.649C211.899 226.649 213.733 224.817 213.733 222.556C213.733 220.296 211.899 218.463 209.637 218.463C207.375 218.463 205.541 220.296 205.541 222.556C205.541 224.817 207.375 226.649 209.637 226.649Z" stroke="#D93464" stroke-width="1.88" stroke-miterlimit="10"/>
<path d="M217.283 233.38C216.828 229.56 213.551 226.649 209.637 226.649C205.723 226.649 202.446 229.56 201.991 233.38" stroke="#D93464" stroke-width="1.88" stroke-miterlimit="10"/>
</g>
</g>
<g opacity="0.8">
<path d="M215.693 270.282L222.292 265.961" stroke="#D93464" stroke-opacity="0.5" stroke-width="1.5" stroke-linecap="round" stroke-linejoin="round"/>
<path d="M226.559 265.848L233.329 267.439" stroke="#D93464" stroke-opacity="0.5" stroke-width="1.5"/>
<path d="M237.481 266.473L245.787 261.186" stroke="#D93464" stroke-opacity="0.5" stroke-width="1.5"/>
<path d="M226.467 265.508C226.467 266.621 225.564 267.524 224.448 267.524C223.333 267.524 222.43 266.621 222.43 265.508C222.43 264.395 223.333 263.492 224.448 263.492C225.564 263.492 226.467 264.395 226.467 265.508Z" stroke="#D93464" stroke-width="1.5"/>
<path d="M237.501 267.352C237.501 268.465 236.598 269.368 235.483 269.368C234.368 269.368 233.465 268.465 233.465 267.352C233.465 266.239 234.368 265.336 235.483 265.336C236.598 265.336 237.501 266.239 237.501 267.352Z" stroke="#D93464" stroke-width="1.5"/>
<path d="M215.708 271.04C215.708 272.153 214.805 273.056 213.69 273.056C212.575 273.056 211.672 272.153 211.672 271.04C211.672 269.927 212.575 269.024 213.69 269.024C214.805 269.024 215.708 269.927 215.708 271.04Z" stroke="#D93464" stroke-width="1.5"/>
<path d="M249.411 259.976C249.411 261.089 248.508 261.992 247.393 261.992C246.278 261.992 245.375 261.089 245.375 259.976C245.375 258.863 246.278 257.96 247.393 257.96C248.508 257.96 249.411 258.863 249.411 259.976Z" stroke="#D93464" stroke-width="1.5"/>
</g>
<path opacity="0.9" d="M248.782 77.9766L255.73 89.906H241.933L248.782 77.9766Z" stroke="#D93464" stroke-width="1.5" stroke-miterlimit="10" stroke-linejoin="round"/>
</g>
<g filter="url(#filter6_d)">
<rect x="24.0088" y="226.507" width="142.904" height="125.985" rx="14" fill="white"/>
</g>
<path d="M66.2928 275.296C66.4615 275.296 66.5971 275.347 66.6998 275.45C66.8025 275.545 66.8538 275.673 66.8538 275.835V278.2C66.8538 278.537 66.8098 278.775 66.7218 278.915C66.6338 279.054 66.4541 279.168 66.1828 279.256C65.8895 279.358 65.5485 279.439 65.1598 279.498C64.7711 279.556 64.3971 279.586 64.0378 279.586C63.2385 279.586 62.5455 279.428 61.9588 279.113C61.3721 278.797 60.9211 278.343 60.6058 277.749C60.2978 277.147 60.1438 276.432 60.1438 275.604C60.1438 274.79 60.2978 274.086 60.6058 273.492C60.9211 272.89 61.3648 272.432 61.9368 272.117C62.5088 271.794 63.1835 271.633 63.9608 271.633C64.9948 271.633 65.8418 271.911 66.5018 272.469C66.5898 272.549 66.6521 272.63 66.6888 272.711C66.7328 272.791 66.7548 272.887 66.7548 272.997C66.7548 273.158 66.7108 273.294 66.6228 273.404C66.5348 273.514 66.4285 273.569 66.3038 273.569C66.2231 273.569 66.1498 273.558 66.0838 273.536C66.0178 273.506 65.9408 273.462 65.8528 273.404C65.5301 273.176 65.2295 273.019 64.9508 272.931C64.6721 272.835 64.3568 272.788 64.0048 272.788C63.2055 272.788 62.6005 273.026 62.1898 273.503C61.7865 273.972 61.5848 274.672 61.5848 275.604C61.5848 277.51 62.4208 278.464 64.0928 278.464C64.5915 278.464 65.0901 278.394 65.5888 278.255V276.308H64.3458C64.1698 276.308 64.0305 276.264 63.9278 276.176C63.8325 276.088 63.7848 275.963 63.7848 275.802C63.7848 275.64 63.8325 275.516 63.9278 275.428C64.0305 275.34 64.1698 275.296 64.3458 275.296H66.2928ZM72.5892 278.013C72.7139 278.013 72.8129 278.06 72.8862 278.156C72.9669 278.251 73.0072 278.379 73.0072 278.541C73.0072 278.768 72.8715 278.959 72.6002 279.113C72.3509 279.252 72.0685 279.366 71.7532 279.454C71.4379 279.534 71.1372 279.575 70.8512 279.575C69.9859 279.575 69.3002 279.325 68.7942 278.827C68.2882 278.328 68.0352 277.646 68.0352 276.781C68.0352 276.231 68.1452 275.743 68.3652 275.318C68.5852 274.892 68.8932 274.562 69.2892 274.328C69.6925 274.093 70.1472 273.976 70.6532 273.976C71.1372 273.976 71.5589 274.082 71.9182 274.295C72.2775 274.507 72.5562 274.808 72.7542 275.197C72.9522 275.585 73.0512 276.044 73.0512 276.572C73.0512 276.887 72.9119 277.045 72.6332 277.045H69.3882C69.4322 277.551 69.5752 277.925 69.8172 278.167C70.0592 278.401 70.4112 278.519 70.8732 278.519C71.1079 278.519 71.3132 278.489 71.4892 278.431C71.6725 278.372 71.8779 278.291 72.1052 278.189C72.3252 278.071 72.4865 278.013 72.5892 278.013ZM70.6862 274.944C70.3122 274.944 70.0115 275.061 69.7842 275.296C69.5642 275.53 69.4322 275.868 69.3882 276.308H71.8742C71.8595 275.86 71.7495 275.523 71.5442 275.296C71.3389 275.061 71.0529 274.944 70.6862 274.944ZM76.6289 279.575C76.0789 279.575 75.5949 279.461 75.1769 279.234C74.7663 279.006 74.4473 278.68 74.2199 278.255C73.9926 277.829 73.8789 277.334 73.8789 276.77C73.8789 276.205 73.9926 275.714 74.2199 275.296C74.4473 274.87 74.7663 274.544 75.1769 274.317C75.5949 274.089 76.0789 273.976 76.6289 273.976C77.1789 273.976 77.6593 274.089 78.0699 274.317C78.4879 274.544 78.8069 274.87 79.0269 275.296C79.2543 275.714 79.3679 276.205 79.3679 276.77C79.3679 277.334 79.2543 277.829 79.0269 278.255C78.8069 278.68 78.4879 279.006 78.0699 279.234C77.6593 279.461 77.1789 279.575 76.6289 279.575ZM76.6179 278.508C77.0653 278.508 77.4063 278.361 77.6409 278.068C77.8756 277.774 77.9929 277.342 77.9929 276.77C77.9929 276.205 77.8756 275.776 77.6409 275.483C77.4063 275.182 77.0689 275.032 76.6289 275.032C76.1889 275.032 75.8479 275.182 75.6059 275.483C75.3713 275.776 75.2539 276.205 75.2539 276.77C75.2539 277.342 75.3713 277.774 75.6059 278.068C75.8406 278.361 76.1779 278.508 76.6179 278.508ZM85.0571 273.998C85.2624 273.998 85.4274 274.056 85.5521 274.174C85.6768 274.291 85.7391 274.449 85.7391 274.647V278.992C85.7391 279.835 85.5044 280.473 85.0351 280.906C84.5658 281.338 83.8728 281.555 82.9561 281.555C82.1568 281.555 81.4894 281.404 80.9541 281.104C80.6828 280.942 80.5471 280.748 80.5471 280.521C80.5471 280.359 80.5838 280.231 80.6571 280.136C80.7378 280.04 80.8404 279.993 80.9651 279.993C81.0311 279.993 81.1118 280.007 81.2071 280.037C81.3024 280.073 81.4014 280.114 81.5041 280.158C81.7681 280.268 82.0028 280.352 82.2081 280.411C82.4208 280.469 82.6628 280.499 82.9341 280.499C83.8948 280.499 84.3751 280.029 84.3751 279.091V278.387C84.2138 278.687 83.9791 278.922 83.6711 279.091C83.3631 279.252 83.0111 279.333 82.6151 279.333C82.1458 279.333 81.7278 279.223 81.3611 279.003C81.0018 278.775 80.7194 278.46 80.5141 278.057C80.3088 277.653 80.2061 277.188 80.2061 276.66C80.2061 276.132 80.3051 275.666 80.5031 275.263C80.7084 274.852 80.9944 274.537 81.3611 274.317C81.7278 274.089 82.1458 273.976 82.6151 273.976C83.0111 273.976 83.3631 274.06 83.6711 274.229C83.9791 274.39 84.2138 274.621 84.3751 274.922V274.636C84.3751 274.445 84.4374 274.291 84.5621 274.174C84.6868 274.056 84.8518 273.998 85.0571 273.998ZM82.9781 278.266C83.4181 278.266 83.7591 278.123 84.0011 277.837C84.2504 277.551 84.3751 277.158 84.3751 276.66C84.3751 276.154 84.2504 275.758 84.0011 275.472C83.7591 275.186 83.4181 275.043 82.9781 275.043C82.5454 275.043 82.2044 275.186 81.9551 275.472C81.7058 275.758 81.5811 276.154 81.5811 276.66C81.5811 277.158 81.7058 277.551 81.9551 277.837C82.2044 278.123 82.5454 278.266 82.9781 278.266ZM90.1662 273.998C90.3569 273.983 90.5072 274.023 90.6172 274.119C90.7272 274.214 90.7822 274.357 90.7822 274.548C90.7822 274.746 90.7346 274.892 90.6392 274.988C90.5439 275.083 90.3716 275.145 90.1222 275.175L89.7922 275.208C89.3596 275.252 89.0406 275.398 88.8352 275.648C88.6372 275.897 88.5382 276.209 88.5382 276.583V278.893C88.5382 279.105 88.4722 279.27 88.3402 279.388C88.2082 279.498 88.0432 279.553 87.8452 279.553C87.6472 279.553 87.4822 279.498 87.3502 279.388C87.2256 279.27 87.1632 279.105 87.1632 278.893V274.636C87.1632 274.43 87.2256 274.273 87.3502 274.163C87.4822 274.053 87.6436 273.998 87.8342 273.998C88.0249 273.998 88.1789 274.053 88.2962 274.163C88.4136 274.265 88.4722 274.416 88.4722 274.614V275.054C88.6116 274.731 88.8169 274.482 89.0882 274.306C89.3669 274.13 89.6749 274.031 90.0122 274.009L90.1662 273.998ZM93.6847 273.976C94.4327 273.976 94.9864 274.163 95.3457 274.537C95.7124 274.903 95.8957 275.464 95.8957 276.22V278.904C95.8957 279.102 95.837 279.259 95.7197 279.377C95.6024 279.487 95.441 279.542 95.2357 279.542C95.045 279.542 94.8874 279.483 94.7627 279.366C94.6454 279.248 94.5867 279.094 94.5867 278.904V278.662C94.462 278.948 94.264 279.171 93.9927 279.333C93.7287 279.494 93.4207 279.575 93.0687 279.575C92.7094 279.575 92.383 279.501 92.0897 279.355C91.7964 279.208 91.5654 279.006 91.3967 278.75C91.228 278.493 91.1437 278.207 91.1437 277.892C91.1437 277.496 91.2427 277.184 91.4407 276.957C91.646 276.729 91.976 276.564 92.4307 276.462C92.8854 276.359 93.5124 276.308 94.3117 276.308H94.5867V276.055C94.5867 275.695 94.5097 275.435 94.3557 275.274C94.2017 275.105 93.9524 275.021 93.6077 275.021C93.395 275.021 93.1787 275.054 92.9587 275.12C92.7387 275.178 92.4784 275.266 92.1777 275.384C91.987 275.479 91.8477 275.527 91.7597 275.527C91.6277 275.527 91.5177 275.479 91.4297 275.384C91.349 275.288 91.3087 275.164 91.3087 275.01C91.3087 274.885 91.338 274.779 91.3967 274.691C91.4627 274.595 91.569 274.507 91.7157 274.427C91.9724 274.287 92.2767 274.177 92.6287 274.097C92.988 274.016 93.34 273.976 93.6847 273.976ZM93.3437 278.585C93.7104 278.585 94.0074 278.464 94.2347 278.222C94.4694 277.972 94.5867 277.653 94.5867 277.265V277.034H94.3887C93.8974 277.034 93.516 277.056 93.2447 277.1C92.9734 277.144 92.779 277.221 92.6617 277.331C92.5444 277.441 92.4857 277.591 92.4857 277.782C92.4857 278.016 92.5664 278.211 92.7277 278.365C92.8964 278.511 93.1017 278.585 93.3437 278.585ZM100.384 273.976C100.846 273.976 101.257 274.093 101.616 274.328C101.983 274.562 102.265 274.896 102.463 275.329C102.668 275.754 102.771 276.245 102.771 276.803C102.771 277.36 102.668 277.848 102.463 278.266C102.265 278.684 101.986 279.006 101.627 279.234C101.268 279.461 100.853 279.575 100.384 279.575C100.003 279.575 99.6618 279.494 99.3611 279.333C99.0605 279.171 98.8295 278.948 98.6681 278.662V280.906C98.6681 281.096 98.6058 281.247 98.4811 281.357C98.3565 281.467 98.1915 281.522 97.9861 281.522C97.7808 281.522 97.6121 281.463 97.4801 281.346C97.3555 281.228 97.2931 281.074 97.2931 280.884V274.647C97.2931 274.449 97.3518 274.291 97.4691 274.174C97.5938 274.056 97.7588 273.998 97.9641 273.998C98.1695 273.998 98.3345 274.056 98.4591 274.174C98.5838 274.291 98.6461 274.449 98.6461 274.647V274.922C98.8075 274.621 99.0385 274.39 99.3391 274.229C99.6471 274.06 99.9955 273.976 100.384 273.976ZM100.021 278.508C100.454 278.508 100.791 278.361 101.033 278.068C101.275 277.767 101.396 277.345 101.396 276.803C101.396 276.245 101.275 275.813 101.033 275.505C100.791 275.197 100.454 275.043 100.021 275.043C99.5811 275.043 99.2401 275.193 98.9981 275.494C98.7635 275.794 98.6461 276.223 98.6461 276.781C98.6461 277.331 98.7635 277.756 98.9981 278.057C99.2401 278.357 99.5811 278.508 100.021 278.508ZM107.046 273.976C108.307 273.976 108.938 274.713 108.938 276.187V278.893C108.938 279.098 108.875 279.259 108.751 279.377C108.633 279.494 108.468 279.553 108.256 279.553C108.043 279.553 107.874 279.494 107.75 279.377C107.625 279.259 107.563 279.098 107.563 278.893V276.187C107.563 275.798 107.482 275.516 107.321 275.34C107.167 275.156 106.921 275.065 106.584 275.065C106.188 275.065 105.869 275.189 105.627 275.439C105.392 275.688 105.275 276.022 105.275 276.44V278.893C105.275 279.098 105.212 279.259 105.088 279.377C104.963 279.494 104.794 279.553 104.582 279.553C104.369 279.553 104.2 279.494 104.076 279.377C103.958 279.259 103.9 279.098 103.9 278.893V272.315C103.9 272.124 103.962 271.97 104.087 271.853C104.219 271.735 104.387 271.677 104.593 271.677C104.798 271.677 104.963 271.732 105.088 271.842C105.212 271.952 105.275 272.102 105.275 272.293V274.856C105.458 274.57 105.7 274.353 106.001 274.207C106.309 274.053 106.657 273.976 107.046 273.976ZM114.085 274.394C114.144 274.262 114.221 274.166 114.316 274.108C114.419 274.042 114.529 274.009 114.646 274.009C114.815 274.009 114.965 274.067 115.097 274.185C115.236 274.295 115.306 274.434 115.306 274.603C115.306 274.683 115.284 274.768 115.24 274.856L112.237 281.148C112.112 281.397 111.918 281.522 111.654 281.522C111.485 281.522 111.335 281.467 111.203 281.357C111.078 281.254 111.016 281.122 111.016 280.961C111.016 280.88 111.038 280.788 111.082 280.686L111.83 279.113L109.784 274.856C109.747 274.782 109.729 274.698 109.729 274.603C109.729 274.434 109.799 274.291 109.938 274.174C110.085 274.056 110.25 273.998 110.433 273.998C110.558 273.998 110.671 274.031 110.774 274.097C110.877 274.155 110.957 274.251 111.016 274.383L112.556 277.782L114.085 274.394Z" fill="#D93464"/>
<path d="M63.0698 305.115C62.5051 305.115 61.9698 305.042 61.4638 304.895C60.9651 304.741 60.5581 304.536 60.2428 304.279C60.0741 304.155 59.9898 303.979 59.9898 303.751C59.9898 303.597 60.0338 303.465 60.1218 303.355C60.2171 303.238 60.3271 303.179 60.4518 303.179C60.5838 303.179 60.7341 303.231 60.9028 303.333C61.2181 303.561 61.5481 303.726 61.8928 303.828C62.2375 303.931 62.6188 303.982 63.0368 303.982C63.5721 303.982 63.9828 303.891 64.2688 303.707C64.5548 303.517 64.6978 303.242 64.6978 302.882C64.6978 302.604 64.5621 302.391 64.2908 302.244C64.0268 302.09 63.5831 301.944 62.9598 301.804C62.3145 301.665 61.7901 301.504 61.3868 301.32C60.9835 301.137 60.6791 300.902 60.4738 300.616C60.2685 300.33 60.1658 299.967 60.1658 299.527C60.1658 299.073 60.2941 298.666 60.5508 298.306C60.8075 297.947 61.1631 297.668 61.6178 297.47C62.0798 297.265 62.5968 297.162 63.1688 297.162C64.2175 297.162 65.0718 297.441 65.7318 297.998C65.8271 298.079 65.8931 298.16 65.9298 298.24C65.9738 298.314 65.9958 298.409 65.9958 298.526C65.9958 298.68 65.9481 298.816 65.8528 298.933C65.7648 299.043 65.6585 299.098 65.5338 299.098C65.4605 299.098 65.3908 299.087 65.3248 299.065C65.2661 299.043 65.1855 299.003 65.0828 298.944C64.7821 298.724 64.4888 298.563 64.2028 298.46C63.9241 298.35 63.5795 298.295 63.1688 298.295C62.6701 298.295 62.2741 298.398 61.9808 298.603C61.6948 298.801 61.5518 299.08 61.5518 299.439C61.5518 299.74 61.6801 299.971 61.9368 300.132C62.1935 300.294 62.6298 300.444 63.2458 300.583C63.8985 300.73 64.4265 300.895 64.8298 301.078C65.2405 301.254 65.5521 301.482 65.7648 301.76C65.9848 302.039 66.0948 302.387 66.0948 302.805C66.0948 303.26 65.9665 303.663 65.7098 304.015C65.4605 304.36 65.1048 304.631 64.6428 304.829C64.1881 305.02 63.6638 305.115 63.0698 305.115ZM69.6665 305.104C69.1311 305.104 68.6581 304.991 68.2475 304.763C67.8441 304.536 67.5325 304.213 67.3125 303.795C67.0925 303.377 66.9825 302.89 66.9825 302.332C66.9825 301.775 67.0961 301.284 67.3235 300.858C67.5581 300.426 67.8845 300.092 68.3025 299.857C68.7205 299.623 69.2008 299.505 69.7435 299.505C70.0295 299.505 70.3155 299.546 70.6015 299.626C70.8948 299.707 71.1515 299.817 71.3715 299.956C71.6061 300.11 71.7235 300.305 71.7235 300.539C71.7235 300.701 71.6831 300.833 71.6025 300.935C71.5291 301.031 71.4301 301.078 71.3055 301.078C71.2248 301.078 71.1405 301.06 71.0525 301.023C70.9645 300.987 70.8765 300.943 70.7885 300.891C70.6271 300.796 70.4731 300.723 70.3265 300.671C70.1798 300.613 70.0111 300.583 69.8205 300.583C69.3658 300.583 69.0138 300.734 68.7645 301.034C68.5225 301.328 68.4015 301.753 68.4015 302.31C68.4015 302.86 68.5225 303.286 68.7645 303.586C69.0138 303.88 69.3658 304.026 69.8205 304.026C70.0038 304.026 70.1651 304.001 70.3045 303.949C70.4511 303.891 70.6125 303.814 70.7885 303.718C70.8985 303.652 70.9938 303.605 71.0745 303.575C71.1551 303.539 71.2358 303.52 71.3165 303.52C71.4338 303.52 71.5328 303.572 71.6135 303.674C71.6941 303.777 71.7345 303.905 71.7345 304.059C71.7345 304.184 71.7051 304.294 71.6465 304.389C71.5951 304.477 71.5071 304.558 71.3825 304.631C71.1551 304.778 70.8911 304.895 70.5905 304.983C70.2898 305.064 69.9818 305.104 69.6665 305.104ZM73.3325 305.082C73.1345 305.082 72.9695 305.027 72.8375 304.917C72.7129 304.8 72.6505 304.635 72.6505 304.422V300.176C72.6505 299.964 72.7129 299.802 72.8375 299.692C72.9695 299.582 73.1345 299.527 73.3325 299.527C73.5305 299.527 73.6955 299.582 73.8275 299.692C73.9595 299.802 74.0255 299.964 74.0255 300.176V304.422C74.0255 304.635 73.9595 304.8 73.8275 304.917C73.6955 305.027 73.5305 305.082 73.3325 305.082ZM73.3325 298.548C73.0832 298.548 72.8852 298.482 72.7385 298.35C72.5919 298.211 72.5185 298.031 72.5185 297.811C72.5185 297.591 72.5919 297.415 72.7385 297.283C72.8852 297.151 73.0832 297.085 73.3325 297.085C73.5745 297.085 73.7689 297.151 73.9155 297.283C74.0695 297.415 74.1465 297.591 74.1465 297.811C74.1465 298.031 74.0732 298.211 73.9265 298.35C73.7799 298.482 73.5819 298.548 73.3325 298.548ZM79.7005 303.542C79.8252 303.542 79.9242 303.59 79.9975 303.685C80.0782 303.781 80.1185 303.909 80.1185 304.07C80.1185 304.298 79.9828 304.488 79.7115 304.642C79.4622 304.782 79.1798 304.895 78.8645 304.983C78.5492 305.064 78.2485 305.104 77.9625 305.104C77.0972 305.104 76.4115 304.855 75.9055 304.356C75.3995 303.858 75.1465 303.176 75.1465 302.31C75.1465 301.76 75.2565 301.273 75.4765 300.847C75.6965 300.422 76.0045 300.092 76.4005 299.857C76.8038 299.623 77.2585 299.505 77.7645 299.505C78.2485 299.505 78.6702 299.612 79.0295 299.824C79.3888 300.037 79.6675 300.338 79.8655 300.726C80.0635 301.115 80.1625 301.573 80.1625 302.101C80.1625 302.417 80.0232 302.574 79.7445 302.574H76.4995C76.5435 303.08 76.6865 303.454 76.9285 303.696C77.1705 303.931 77.5225 304.048 77.9845 304.048C78.2192 304.048 78.4245 304.019 78.6005 303.96C78.7838 303.902 78.9892 303.821 79.2165 303.718C79.4365 303.601 79.5978 303.542 79.7005 303.542ZM77.7975 300.473C77.4235 300.473 77.1228 300.591 76.8955 300.825C76.6755 301.06 76.5435 301.397 76.4995 301.837H78.9855C78.9708 301.39 78.8608 301.053 78.6555 300.825C78.4502 300.591 78.1642 300.473 77.7975 300.473ZM84.4113 299.505C85.0566 299.505 85.5369 299.689 85.8523 300.055C86.1676 300.422 86.3253 300.976 86.3253 301.716V304.422C86.3253 304.628 86.2629 304.789 86.1383 304.906C86.0209 305.024 85.8559 305.082 85.6433 305.082C85.4306 305.082 85.2619 305.024 85.1373 304.906C85.0126 304.789 84.9503 304.628 84.9503 304.422V301.793C84.9503 301.375 84.8696 301.071 84.7083 300.88C84.5543 300.69 84.3086 300.594 83.9713 300.594C83.5753 300.594 83.2563 300.719 83.0143 300.968C82.7796 301.218 82.6623 301.551 82.6623 301.969V304.422C82.6623 304.628 82.5999 304.789 82.4753 304.906C82.3506 305.024 82.1819 305.082 81.9693 305.082C81.7566 305.082 81.5879 305.024 81.4633 304.906C81.3459 304.789 81.2873 304.628 81.2873 304.422V300.165C81.2873 299.975 81.3496 299.821 81.4743 299.703C81.5989 299.586 81.7676 299.527 81.9803 299.527C82.1709 299.527 82.3249 299.586 82.4423 299.703C82.5669 299.813 82.6293 299.96 82.6293 300.143V300.44C82.8126 300.14 83.0583 299.909 83.3663 299.747C83.6743 299.586 84.0226 299.505 84.4113 299.505ZM90.1088 305.104C89.5735 305.104 89.1005 304.991 88.6898 304.763C88.2865 304.536 87.9748 304.213 87.7548 303.795C87.5348 303.377 87.4248 302.89 87.4248 302.332C87.4248 301.775 87.5385 301.284 87.7658 300.858C88.0005 300.426 88.3268 300.092 88.7448 299.857C89.1628 299.623 89.6432 299.505 90.1858 299.505C90.4718 299.505 90.7578 299.546 91.0438 299.626C91.3372 299.707 91.5938 299.817 91.8138 299.956C92.0485 300.11 92.1658 300.305 92.1658 300.539C92.1658 300.701 92.1255 300.833 92.0448 300.935C91.9715 301.031 91.8725 301.078 91.7478 301.078C91.6672 301.078 91.5828 301.06 91.4948 301.023C91.4068 300.987 91.3188 300.943 91.2308 300.891C91.0695 300.796 90.9155 300.723 90.7688 300.671C90.6222 300.613 90.4535 300.583 90.2628 300.583C89.8082 300.583 89.4562 300.734 89.2068 301.034C88.9648 301.328 88.8438 301.753 88.8438 302.31C88.8438 302.86 88.9648 303.286 89.2068 303.586C89.4562 303.88 89.8082 304.026 90.2628 304.026C90.4462 304.026 90.6075 304.001 90.7468 303.949C90.8935 303.891 91.0548 303.814 91.2308 303.718C91.3408 303.652 91.4362 303.605 91.5168 303.575C91.5975 303.539 91.6782 303.52 91.7588 303.52C91.8762 303.52 91.9752 303.572 92.0558 303.674C92.1365 303.777 92.1768 303.905 92.1768 304.059C92.1768 304.184 92.1475 304.294 92.0888 304.389C92.0375 304.477 91.9495 304.558 91.8248 304.631C91.5975 304.778 91.3335 304.895 91.0328 304.983C90.7322 305.064 90.4242 305.104 90.1088 305.104ZM97.3499 303.542C97.4746 303.542 97.5736 303.59 97.6469 303.685C97.7276 303.781 97.7679 303.909 97.7679 304.07C97.7679 304.298 97.6323 304.488 97.3609 304.642C97.1116 304.782 96.8293 304.895 96.5139 304.983C96.1986 305.064 95.8979 305.104 95.6119 305.104C94.7466 305.104 94.0609 304.855 93.5549 304.356C93.0489 303.858 92.7959 303.176 92.7959 302.31C92.7959 301.76 92.9059 301.273 93.1259 300.847C93.3459 300.422 93.6539 300.092 94.0499 299.857C94.4533 299.623 94.9079 299.505 95.4139 299.505C95.8979 299.505 96.3196 299.612 96.6789 299.824C97.0383 300.037 97.3169 300.338 97.5149 300.726C97.7129 301.115 97.8119 301.573 97.8119 302.101C97.8119 302.417 97.6726 302.574 97.3939 302.574H94.1489C94.1929 303.08 94.3359 303.454 94.5779 303.696C94.8199 303.931 95.1719 304.048 95.6339 304.048C95.8686 304.048 96.0739 304.019 96.2499 303.96C96.4333 303.902 96.6386 303.821 96.8659 303.718C97.0859 303.601 97.2473 303.542 97.3499 303.542ZM95.4469 300.473C95.0729 300.473 94.7723 300.591 94.5449 300.825C94.3249 301.06 94.1929 301.397 94.1489 301.837H96.6349C96.6203 301.39 96.5103 301.053 96.3049 300.825C96.0996 300.591 95.8136 300.473 95.4469 300.473Z" fill="#D93464"/>
<path d="M67.4148 329.699C67.4588 329.794 67.4808 329.889 67.4808 329.985C67.4808 330.153 67.4111 330.296 67.2718 330.414C67.1398 330.531 66.9858 330.59 66.8098 330.59C66.6925 330.59 66.5825 330.56 66.4798 330.502C66.3771 330.436 66.2965 330.337 66.2378 330.205L65.5778 328.731H61.7058L61.0458 330.205C60.9871 330.337 60.9065 330.436 60.8038 330.502C60.7011 330.56 60.5875 330.59 60.4628 330.59C60.2941 330.59 60.1401 330.531 60.0008 330.414C59.8615 330.296 59.7918 330.153 59.7918 329.985C59.7918 329.889 59.8138 329.794 59.8578 329.699L62.8938 323.176C62.9598 323.029 63.0588 322.919 63.1908 322.846C63.3301 322.765 63.4768 322.725 63.6308 322.725C63.7848 322.725 63.9278 322.765 64.0598 322.846C64.1991 322.919 64.3018 323.029 64.3678 323.176L67.4148 329.699ZM62.1898 327.631H65.0938L63.6418 324.364L62.1898 327.631ZM70.2899 330.634C69.4906 330.634 68.8453 330.476 68.3539 330.161C68.1193 330.021 68.0019 329.823 68.0019 329.567C68.0019 329.42 68.0423 329.303 68.1229 329.215C68.2036 329.119 68.3026 329.072 68.4199 329.072C68.5446 329.072 68.7169 329.13 68.9369 329.248C69.1716 329.358 69.3843 329.442 69.5749 329.501C69.7729 329.559 70.0223 329.589 70.3229 329.589C70.6309 329.589 70.8693 329.537 71.0379 329.435C71.2139 329.332 71.3019 329.189 71.3019 329.006C71.3019 328.881 71.2653 328.782 71.1919 328.709C71.1259 328.635 71.0013 328.569 70.8179 328.511C70.6419 328.445 70.3706 328.371 70.0039 328.291C69.3513 328.159 68.8819 327.972 68.5959 327.73C68.3173 327.488 68.1779 327.154 68.1779 326.729C68.1779 326.406 68.2733 326.116 68.4639 325.86C68.6546 325.596 68.9149 325.394 69.2449 325.255C69.5823 325.108 69.9636 325.035 70.3889 325.035C70.6969 325.035 70.9939 325.075 71.2799 325.156C71.5659 325.229 71.8226 325.339 72.0499 325.486C72.2846 325.632 72.4019 325.827 72.4019 326.069C72.4019 326.215 72.3616 326.34 72.2809 326.443C72.2003 326.538 72.1013 326.586 71.9839 326.586C71.9033 326.586 71.8226 326.571 71.7419 326.542C71.6686 326.505 71.5733 326.454 71.4559 326.388C71.2433 326.278 71.0599 326.197 70.9059 326.146C70.7519 326.087 70.5613 326.058 70.3339 326.058C70.0626 326.058 69.8463 326.113 69.6849 326.223C69.5309 326.333 69.4539 326.483 69.4539 326.674C69.4539 326.857 69.5346 326.996 69.6959 327.092C69.8573 327.187 70.1689 327.282 70.6309 327.378C71.1223 327.48 71.5073 327.598 71.7859 327.73C72.0646 327.862 72.2626 328.027 72.3799 328.225C72.5046 328.423 72.5669 328.676 72.5669 328.984C72.5669 329.482 72.3579 329.882 71.9399 330.183C71.5293 330.483 70.9793 330.634 70.2899 330.634ZM76.4221 329.589C76.7888 329.611 76.9721 329.776 76.9721 330.084C76.9721 330.26 76.8988 330.395 76.7521 330.491C76.6128 330.579 76.4111 330.615 76.1471 330.601L75.8501 330.579C74.6181 330.491 74.0021 329.831 74.0021 328.599V326.201H73.4521C73.2541 326.201 73.1001 326.157 72.9901 326.069C72.8874 325.981 72.8361 325.852 72.8361 325.684C72.8361 325.515 72.8874 325.387 72.9901 325.299C73.1001 325.211 73.2541 325.167 73.4521 325.167H74.0021V324.155C74.0021 323.957 74.0644 323.799 74.1891 323.682C74.3138 323.564 74.4824 323.506 74.6951 323.506C74.9004 323.506 75.0654 323.564 75.1901 323.682C75.3148 323.799 75.3771 323.957 75.3771 324.155V325.167H76.3121C76.5101 325.167 76.6604 325.211 76.7631 325.299C76.8731 325.387 76.9281 325.515 76.9281 325.684C76.9281 325.852 76.8731 325.981 76.7631 326.069C76.6604 326.157 76.5101 326.201 76.3121 326.201H75.3771V328.698C75.3771 329.24 75.6264 329.53 76.1251 329.567L76.4221 329.589ZM80.6916 325.057C80.8823 325.042 81.0326 325.082 81.1426 325.178C81.2526 325.273 81.3076 325.416 81.3076 325.607C81.3076 325.805 81.26 325.951 81.1646 326.047C81.0693 326.142 80.897 326.204 80.6476 326.234L80.3176 326.267C79.885 326.311 79.566 326.457 79.3606 326.707C79.1626 326.956 79.0636 327.268 79.0636 327.642V329.952C79.0636 330.164 78.9976 330.329 78.8656 330.447C78.7336 330.557 78.5686 330.612 78.3706 330.612C78.1726 330.612 78.0076 330.557 77.8756 330.447C77.751 330.329 77.6886 330.164 77.6886 329.952V325.695C77.6886 325.489 77.751 325.332 77.8756 325.222C78.0076 325.112 78.169 325.057 78.3596 325.057C78.5503 325.057 78.7043 325.112 78.8216 325.222C78.939 325.324 78.9976 325.475 78.9976 325.673V326.113C79.137 325.79 79.3423 325.541 79.6136 325.365C79.8923 325.189 80.2003 325.09 80.5376 325.068L80.6916 325.057ZM84.2451 330.634C83.6951 330.634 83.2111 330.52 82.7931 330.293C82.3825 330.065 82.0635 329.739 81.8361 329.314C81.6088 328.888 81.4951 328.393 81.4951 327.829C81.4951 327.264 81.6088 326.773 81.8361 326.355C82.0635 325.929 82.3825 325.603 82.7931 325.376C83.2111 325.148 83.6951 325.035 84.2451 325.035C84.7951 325.035 85.2755 325.148 85.6861 325.376C86.1041 325.603 86.4231 325.929 86.6431 326.355C86.8705 326.773 86.9841 327.264 86.9841 327.829C86.9841 328.393 86.8705 328.888 86.6431 329.314C86.4231 329.739 86.1041 330.065 85.6861 330.293C85.2755 330.52 84.7951 330.634 84.2451 330.634ZM84.2341 329.567C84.6815 329.567 85.0225 329.42 85.2571 329.127C85.4918 328.833 85.6091 328.401 85.6091 327.829C85.6091 327.264 85.4918 326.835 85.2571 326.542C85.0225 326.241 84.6851 326.091 84.2451 326.091C83.8051 326.091 83.4641 326.241 83.2221 326.542C82.9875 326.835 82.8701 327.264 82.8701 327.829C82.8701 328.401 82.9875 328.833 83.2221 329.127C83.4568 329.42 83.7941 329.567 84.2341 329.567ZM91.2433 325.035C91.8886 325.035 92.369 325.218 92.6843 325.585C92.9996 325.951 93.1573 326.505 93.1573 327.246V329.952C93.1573 330.157 93.095 330.318 92.9703 330.436C92.853 330.553 92.688 330.612 92.4753 330.612C92.2626 330.612 92.094 330.553 91.9693 330.436C91.8446 330.318 91.7823 330.157 91.7823 329.952V327.323C91.7823 326.905 91.7016 326.6 91.5403 326.41C91.3863 326.219 91.1406 326.124 90.8033 326.124C90.4073 326.124 90.0883 326.248 89.8463 326.498C89.6116 326.747 89.4943 327.081 89.4943 327.499V329.952C89.4943 330.157 89.432 330.318 89.3073 330.436C89.1826 330.553 89.014 330.612 88.8013 330.612C88.5886 330.612 88.42 330.553 88.2953 330.436C88.178 330.318 88.1193 330.157 88.1193 329.952V325.695C88.1193 325.504 88.1816 325.35 88.3063 325.233C88.431 325.115 88.5996 325.057 88.8123 325.057C89.003 325.057 89.157 325.115 89.2743 325.233C89.399 325.343 89.4613 325.489 89.4613 325.673V325.97C89.6446 325.669 89.8903 325.438 90.1983 325.277C90.5063 325.115 90.8546 325.035 91.2433 325.035ZM97.0069 330.634C96.4569 330.634 95.9729 330.52 95.5549 330.293C95.1442 330.065 94.8252 329.739 94.5979 329.314C94.3705 328.888 94.2569 328.393 94.2569 327.829C94.2569 327.264 94.3705 326.773 94.5979 326.355C94.8252 325.929 95.1442 325.603 95.5549 325.376C95.9729 325.148 96.4569 325.035 97.0069 325.035C97.5569 325.035 98.0372 325.148 98.4479 325.376C98.8659 325.603 99.1849 325.929 99.4049 326.355C99.6322 326.773 99.7459 327.264 99.7459 327.829C99.7459 328.393 99.6322 328.888 99.4049 329.314C99.1849 329.739 98.8659 330.065 98.4479 330.293C98.0372 330.52 97.5569 330.634 97.0069 330.634ZM96.9959 329.567C97.4432 329.567 97.7842 329.42 98.0189 329.127C98.2535 328.833 98.3709 328.401 98.3709 327.829C98.3709 327.264 98.2535 326.835 98.0189 326.542C97.7842 326.241 97.4469 326.091 97.0069 326.091C96.5669 326.091 96.2259 326.241 95.9839 326.542C95.7492 326.835 95.6319 327.264 95.6319 327.829C95.6319 328.401 95.7492 328.833 95.9839 329.127C96.2185 329.42 96.5559 329.567 96.9959 329.567ZM107.272 325.035C107.859 325.035 108.306 325.211 108.614 325.563C108.929 325.907 109.087 326.468 109.087 327.246V329.952C109.087 330.164 109.021 330.329 108.889 330.447C108.764 330.557 108.599 330.612 108.394 330.612C108.196 330.612 108.031 330.557 107.899 330.447C107.774 330.329 107.712 330.164 107.712 329.952V327.246C107.712 326.842 107.639 326.556 107.492 326.388C107.353 326.212 107.136 326.124 106.843 326.124C106.484 326.124 106.198 326.248 105.985 326.498C105.772 326.74 105.666 327.073 105.666 327.499V329.952C105.666 330.164 105.6 330.329 105.468 330.447C105.343 330.557 105.182 330.612 104.984 330.612C104.786 330.612 104.621 330.557 104.489 330.447C104.357 330.329 104.291 330.164 104.291 329.952V327.246C104.291 326.842 104.218 326.556 104.071 326.388C103.932 326.212 103.715 326.124 103.422 326.124C103.063 326.124 102.777 326.248 102.564 326.498C102.359 326.74 102.256 327.073 102.256 327.499V329.952C102.256 330.164 102.19 330.329 102.058 330.447C101.926 330.557 101.761 330.612 101.563 330.612C101.365 330.612 101.2 330.557 101.068 330.447C100.943 330.329 100.881 330.164 100.881 329.952V325.695C100.881 325.489 100.947 325.332 101.079 325.222C101.211 325.112 101.376 325.057 101.574 325.057C101.765 325.057 101.919 325.112 102.036 325.222C102.161 325.324 102.223 325.475 102.223 325.673V325.937C102.392 325.643 102.615 325.42 102.894 325.266C103.18 325.112 103.506 325.035 103.873 325.035C104.68 325.035 105.219 325.372 105.49 326.047C105.651 325.739 105.89 325.493 106.205 325.31C106.52 325.126 106.876 325.035 107.272 325.035ZM114.236 325.453C114.294 325.321 114.371 325.225 114.467 325.167C114.569 325.101 114.679 325.068 114.797 325.068C114.965 325.068 115.116 325.126 115.248 325.244C115.387 325.354 115.457 325.493 115.457 325.662C115.457 325.742 115.435 325.827 115.391 325.915L112.388 332.207C112.263 332.456 112.069 332.581 111.805 332.581C111.636 332.581 111.486 332.526 111.354 332.416C111.229 332.313 111.167 332.181 111.167 332.02C111.167 331.939 111.189 331.847 111.233 331.745L111.981 330.172L109.935 325.915C109.898 325.841 109.88 325.757 109.88 325.662C109.88 325.493 109.949 325.35 110.089 325.233C110.235 325.115 110.4 325.057 110.584 325.057C110.708 325.057 110.822 325.09 110.925 325.156C111.027 325.214 111.108 325.31 111.167 325.442L112.707 328.841L114.236 325.453Z" fill="#D93464"/>
<rect x="42.6958" y="271.588" width="8.54457" height="8.53754" rx="1.5" stroke="#FB6D96"/>
<rect x="42.6958" y="297.117" width="8.54457" height="8.53754" rx="1.5" stroke="#FB6D96"/>
<rect x="42.6958" y="322.647" width="8.54457" height="8.53754" rx="1.5" stroke="#FB6D96"/>
<path d="M44.7988 275.134L47.6911 278.024L54.3434 271.522" stroke="#D93464" stroke-width="1.5" stroke-linecap="round" stroke-linejoin="round"/>
<path d="M24.0088 240.507C24.0088 232.775 30.2768 226.507 38.0088 226.507H152.913C160.645 226.507 166.913 232.775 166.913 240.506V252.784H24.0088V240.507Z" fill="#D93464"/>
<path d="M49.8703 246.425C49.5803 246.425 49.3453 246.34 49.1653 246.17C48.9953 245.99 48.9103 245.75 48.9103 245.45V236.675C48.9103 236.385 48.9903 236.16 49.1503 236C49.3203 235.84 49.5503 235.76 49.8403 235.76H53.5303C54.6603 235.76 55.5403 236.045 56.1703 236.615C56.8003 237.175 57.1153 237.965 57.1153 238.985C57.1153 240.005 56.8003 240.8 56.1703 241.37C55.5403 241.94 54.6603 242.225 53.5303 242.225H50.8453V245.45C50.8453 245.75 50.7553 245.99 50.5753 246.17C50.4053 246.34 50.1703 246.425 49.8703 246.425ZM53.2903 240.74C54.6203 240.74 55.2853 240.16 55.2853 239C55.2853 237.84 54.6203 237.26 53.2903 237.26H50.8453V240.74H53.2903ZM62.5961 238.85C62.8561 238.83 63.0611 238.885 63.2111 239.015C63.3611 239.145 63.4361 239.34 63.4361 239.6C63.4361 239.87 63.3711 240.07 63.2411 240.2C63.1111 240.33 62.8761 240.415 62.5361 240.455L62.0861 240.5C61.4961 240.56 61.0611 240.76 60.7811 241.1C60.5111 241.44 60.3761 241.865 60.3761 242.375V245.525C60.3761 245.815 60.2861 246.04 60.1061 246.2C59.9261 246.35 59.7011 246.425 59.4311 246.425C59.1611 246.425 58.9361 246.35 58.7561 246.2C58.5861 246.04 58.5011 245.815 58.5011 245.525V239.72C58.5011 239.44 58.5861 239.225 58.7561 239.075C58.9361 238.925 59.1561 238.85 59.4161 238.85C59.6761 238.85 59.8861 238.925 60.0461 239.075C60.2061 239.215 60.2861 239.42 60.2861 239.69V240.29C60.4761 239.85 60.7561 239.51 61.1261 239.27C61.5061 239.03 61.9261 238.895 62.3861 238.865L62.5961 238.85ZM69.9018 244.325C70.0718 244.325 70.2068 244.39 70.3068 244.52C70.4168 244.65 70.4718 244.825 70.4718 245.045C70.4718 245.355 70.2868 245.615 69.9168 245.825C69.5768 246.015 69.1918 246.17 68.7618 246.29C68.3318 246.4 67.9218 246.455 67.5318 246.455C66.3518 246.455 65.4168 246.115 64.7268 245.435C64.0368 244.755 63.6918 243.825 63.6918 242.645C63.6918 241.895 63.8418 241.23 64.1418 240.65C64.4418 240.07 64.8618 239.62 65.4018 239.3C65.9518 238.98 66.5718 238.82 67.2618 238.82C67.9218 238.82 68.4968 238.965 68.9868 239.255C69.4768 239.545 69.8568 239.955 70.1268 240.485C70.3968 241.015 70.5318 241.64 70.5318 242.36C70.5318 242.79 70.3418 243.005 69.9618 243.005H65.5368C65.5968 243.695 65.7918 244.205 66.1218 244.535C66.4518 244.855 66.9318 245.015 67.5618 245.015C67.8818 245.015 68.1618 244.975 68.4018 244.895C68.6518 244.815 68.9318 244.705 69.2418 244.565C69.5418 244.405 69.7618 244.325 69.9018 244.325ZM67.3068 240.14C66.7968 240.14 66.3868 240.3 66.0768 240.62C65.7768 240.94 65.5968 241.4 65.5368 242H68.9268C68.9068 241.39 68.7568 240.93 68.4768 240.62C68.1968 240.3 67.8068 240.14 67.3068 240.14ZM76.2806 238.82C76.9106 238.82 77.4706 238.98 77.9606 239.3C78.4606 239.62 78.8456 240.075 79.1156 240.665C79.3956 241.245 79.5356 241.915 79.5356 242.675C79.5356 243.435 79.3956 244.1 79.1156 244.67C78.8456 245.24 78.4656 245.68 77.9756 245.99C77.4856 246.3 76.9206 246.455 76.2806 246.455C75.7606 246.455 75.2956 246.345 74.8856 246.125C74.4756 245.905 74.1606 245.6 73.9406 245.21V248.27C73.9406 248.53 73.8556 248.735 73.6856 248.885C73.5156 249.035 73.2906 249.11 73.0106 249.11C72.7306 249.11 72.5006 249.03 72.3206 248.87C72.1506 248.71 72.0656 248.5 72.0656 248.24V239.735C72.0656 239.465 72.1456 239.25 72.3056 239.09C72.4756 238.93 72.7006 238.85 72.9806 238.85C73.2606 238.85 73.4856 238.93 73.6556 239.09C73.8256 239.25 73.9106 239.465 73.9106 239.735V240.11C74.1306 239.7 74.4456 239.385 74.8556 239.165C75.2756 238.935 75.7506 238.82 76.2806 238.82ZM75.7856 245C76.3756 245 76.8356 244.8 77.1656 244.4C77.4956 243.99 77.6606 243.415 77.6606 242.675C77.6606 241.915 77.4956 241.325 77.1656 240.905C76.8356 240.485 76.3756 240.275 75.7856 240.275C75.1856 240.275 74.7206 240.48 74.3906 240.89C74.0706 241.3 73.9106 241.885 73.9106 242.645C73.9106 243.395 74.0706 243.975 74.3906 244.385C74.7206 244.795 75.1856 245 75.7856 245ZM84.2544 238.82C85.2744 238.82 86.0294 239.075 86.5194 239.585C87.0194 240.085 87.2694 240.85 87.2694 241.88V245.54C87.2694 245.81 87.1894 246.025 87.0294 246.185C86.8694 246.335 86.6494 246.41 86.3694 246.41C86.1094 246.41 85.8944 246.33 85.7244 246.17C85.5644 246.01 85.4844 245.8 85.4844 245.54V245.21C85.3144 245.6 85.0444 245.905 84.6744 246.125C84.3144 246.345 83.8944 246.455 83.4144 246.455C82.9244 246.455 82.4794 246.355 82.0794 246.155C81.6794 245.955 81.3644 245.68 81.1344 245.33C80.9044 244.98 80.7894 244.59 80.7894 244.16C80.7894 243.62 80.9244 243.195 81.1944 242.885C81.4744 242.575 81.9244 242.35 82.5444 242.21C83.1644 242.07 84.0194 242 85.1094 242H85.4844V241.655C85.4844 241.165 85.3794 240.81 85.1694 240.59C84.9594 240.36 84.6194 240.245 84.1494 240.245C83.8594 240.245 83.5644 240.29 83.2644 240.38C82.9644 240.46 82.6094 240.58 82.1994 240.74C81.9394 240.87 81.7494 240.935 81.6294 240.935C81.4494 240.935 81.2994 240.87 81.1794 240.74C81.0694 240.61 81.0144 240.44 81.0144 240.23C81.0144 240.06 81.0544 239.915 81.1344 239.795C81.2244 239.665 81.3694 239.545 81.5694 239.435C81.9194 239.245 82.3344 239.095 82.8144 238.985C83.3044 238.875 83.7844 238.82 84.2544 238.82ZM83.7894 245.105C84.2894 245.105 84.6944 244.94 85.0044 244.61C85.3244 244.27 85.4844 243.835 85.4844 243.305V242.99H85.2144C84.5444 242.99 84.0244 243.02 83.6544 243.08C83.2844 243.14 83.0194 243.245 82.8594 243.395C82.6994 243.545 82.6194 243.75 82.6194 244.01C82.6194 244.33 82.7294 244.595 82.9494 244.805C83.1794 245.005 83.4594 245.105 83.7894 245.105ZM93.27 238.85C93.53 238.83 93.735 238.885 93.885 239.015C94.035 239.145 94.11 239.34 94.11 239.6C94.11 239.87 94.045 240.07 93.915 240.2C93.785 240.33 93.55 240.415 93.21 240.455L92.76 240.5C92.17 240.56 91.735 240.76 91.455 241.1C91.185 241.44 91.05 241.865 91.05 242.375V245.525C91.05 245.815 90.96 246.04 90.78 246.2C90.6 246.35 90.375 246.425 90.105 246.425C89.835 246.425 89.61 246.35 89.43 246.2C89.26 246.04 89.175 245.815 89.175 245.525V239.72C89.175 239.44 89.26 239.225 89.43 239.075C89.61 238.925 89.83 238.85 90.09 238.85C90.35 238.85 90.56 238.925 90.72 239.075C90.88 239.215 90.96 239.42 90.96 239.69V240.29C91.15 239.85 91.43 239.51 91.8 239.27C92.18 239.03 92.6 238.895 93.06 238.865L93.27 238.85ZM100.576 244.325C100.746 244.325 100.881 244.39 100.981 244.52C101.091 244.65 101.146 244.825 101.146 245.045C101.146 245.355 100.961 245.615 100.591 245.825C100.251 246.015 99.8657 246.17 99.4357 246.29C99.0057 246.4 98.5957 246.455 98.2057 246.455C97.0257 246.455 96.0907 246.115 95.4007 245.435C94.7107 244.755 94.3657 243.825 94.3657 242.645C94.3657 241.895 94.5157 241.23 94.8157 240.65C95.1157 240.07 95.5357 239.62 96.0757 239.3C96.6257 238.98 97.2457 238.82 97.9357 238.82C98.5957 238.82 99.1707 238.965 99.6607 239.255C100.151 239.545 100.531 239.955 100.801 240.485C101.071 241.015 101.206 241.64 101.206 242.36C101.206 242.79 101.016 243.005 100.636 243.005H96.2107C96.2707 243.695 96.4657 244.205 96.7957 244.535C97.1257 244.855 97.6057 245.015 98.2357 245.015C98.5557 245.015 98.8357 244.975 99.0757 244.895C99.3257 244.815 99.6057 244.705 99.9157 244.565C100.216 244.405 100.436 244.325 100.576 244.325ZM97.9807 240.14C97.4707 240.14 97.0607 240.3 96.7507 240.62C96.4507 240.94 96.2707 241.4 96.2107 242H99.6007C99.5807 241.39 99.4307 240.93 99.1507 240.62C98.8707 240.3 98.4807 240.14 97.9807 240.14ZM111.027 238.82C111.657 238.82 112.217 238.98 112.707 239.3C113.207 239.62 113.592 240.075 113.862 240.665C114.142 241.245 114.282 241.915 114.282 242.675C114.282 243.435 114.142 244.1 113.862 244.67C113.592 245.24 113.212 245.68 112.722 245.99C112.232 246.3 111.667 246.455 111.027 246.455C110.507 246.455 110.042 246.345 109.632 246.125C109.222 245.905 108.907 245.6 108.687 245.21V248.27C108.687 248.53 108.602 248.735 108.432 248.885C108.262 249.035 108.037 249.11 107.757 249.11C107.477 249.11 107.247 249.03 107.067 248.87C106.897 248.71 106.812 248.5 106.812 248.24V239.735C106.812 239.465 106.892 239.25 107.052 239.09C107.222 238.93 107.447 238.85 107.727 238.85C108.007 238.85 108.232 238.93 108.402 239.09C108.572 239.25 108.657 239.465 108.657 239.735V240.11C108.877 239.7 109.192 239.385 109.602 239.165C110.022 238.935 110.497 238.82 111.027 238.82ZM110.532 245C111.122 245 111.582 244.8 111.912 244.4C112.242 243.99 112.407 243.415 112.407 242.675C112.407 241.915 112.242 241.325 111.912 240.905C111.582 240.485 111.122 240.275 110.532 240.275C109.932 240.275 109.467 240.48 109.137 240.89C108.817 241.3 108.657 241.885 108.657 242.645C108.657 243.395 108.817 243.975 109.137 244.385C109.467 244.795 109.932 245 110.532 245ZM116.75 246.425C116.48 246.425 116.255 246.35 116.075 246.2C115.905 246.04 115.82 245.815 115.82 245.525V236.57C115.82 236.28 115.905 236.06 116.075 235.91C116.255 235.76 116.48 235.685 116.75 235.685C117.02 235.685 117.245 235.76 117.425 235.91C117.605 236.06 117.695 236.28 117.695 236.57V245.525C117.695 245.815 117.605 246.04 117.425 246.2C117.245 246.35 117.02 246.425 116.75 246.425ZM122.809 238.82C123.829 238.82 124.584 239.075 125.074 239.585C125.574 240.085 125.824 240.85 125.824 241.88V245.54C125.824 245.81 125.744 246.025 125.584 246.185C125.424 246.335 125.204 246.41 124.924 246.41C124.664 246.41 124.449 246.33 124.279 246.17C124.119 246.01 124.039 245.8 124.039 245.54V245.21C123.869 245.6 123.599 245.905 123.229 246.125C122.869 246.345 122.449 246.455 121.969 246.455C121.479 246.455 121.034 246.355 120.634 246.155C120.234 245.955 119.919 245.68 119.689 245.33C119.459 244.98 119.344 244.59 119.344 244.16C119.344 243.62 119.479 243.195 119.749 242.885C120.029 242.575 120.479 242.35 121.099 242.21C121.719 242.07 122.574 242 123.664 242H124.039V241.655C124.039 241.165 123.934 240.81 123.724 240.59C123.514 240.36 123.174 240.245 122.704 240.245C122.414 240.245 122.119 240.29 121.819 240.38C121.519 240.46 121.164 240.58 120.754 240.74C120.494 240.87 120.304 240.935 120.184 240.935C120.004 240.935 119.854 240.87 119.734 240.74C119.624 240.61 119.569 240.44 119.569 240.23C119.569 240.06 119.609 239.915 119.689 239.795C119.779 239.665 119.924 239.545 120.124 239.435C120.474 239.245 120.889 239.095 121.369 238.985C121.859 238.875 122.339 238.82 122.809 238.82ZM122.344 245.105C122.844 245.105 123.249 244.94 123.559 244.61C123.879 244.27 124.039 243.835 124.039 243.305V242.99H123.769C123.099 242.99 122.579 243.02 122.209 243.08C121.839 243.14 121.574 243.245 121.414 243.395C121.254 243.545 121.174 243.75 121.174 244.01C121.174 244.33 121.284 244.595 121.504 244.805C121.734 245.005 122.014 245.105 122.344 245.105ZM131.99 238.82C132.87 238.82 133.525 239.07 133.955 239.57C134.385 240.07 134.6 240.825 134.6 241.835V245.525C134.6 245.805 134.515 246.025 134.345 246.185C134.185 246.345 133.96 246.425 133.67 246.425C133.38 246.425 133.15 246.345 132.98 246.185C132.81 246.025 132.725 245.805 132.725 245.525V241.94C132.725 241.37 132.615 240.955 132.395 240.695C132.185 240.435 131.85 240.305 131.39 240.305C130.85 240.305 130.415 240.475 130.085 240.815C129.765 241.155 129.605 241.61 129.605 242.18V245.525C129.605 245.805 129.52 246.025 129.35 246.185C129.18 246.345 128.95 246.425 128.66 246.425C128.37 246.425 128.14 246.345 127.97 246.185C127.81 246.025 127.73 245.805 127.73 245.525V239.72C127.73 239.46 127.815 239.25 127.985 239.09C128.155 238.93 128.385 238.85 128.675 238.85C128.935 238.85 129.145 238.93 129.305 239.09C129.475 239.24 129.56 239.44 129.56 239.69V240.095C129.81 239.685 130.145 239.37 130.565 239.15C130.985 238.93 131.46 238.82 131.99 238.82ZM139.159 246.455C138.069 246.455 137.189 246.24 136.519 245.81C136.199 245.62 136.039 245.35 136.039 245C136.039 244.8 136.094 244.64 136.204 244.52C136.314 244.39 136.449 244.325 136.609 244.325C136.779 244.325 137.014 244.405 137.314 244.565C137.634 244.715 137.924 244.83 138.184 244.91C138.454 244.99 138.794 245.03 139.204 245.03C139.624 245.03 139.949 244.96 140.179 244.82C140.419 244.68 140.539 244.485 140.539 244.235C140.539 244.065 140.489 243.93 140.389 243.83C140.299 243.73 140.129 243.64 139.879 243.56C139.639 243.47 139.269 243.37 138.769 243.26C137.879 243.08 137.239 242.825 136.849 242.495C136.469 242.165 136.279 241.71 136.279 241.13C136.279 240.69 136.409 240.295 136.669 239.945C136.929 239.585 137.284 239.31 137.734 239.12C138.194 238.92 138.714 238.82 139.294 238.82C139.714 238.82 140.119 238.875 140.509 238.985C140.899 239.085 141.249 239.235 141.559 239.435C141.879 239.635 142.039 239.9 142.039 240.23C142.039 240.43 141.984 240.6 141.874 240.74C141.764 240.87 141.629 240.935 141.469 240.935C141.359 240.935 141.249 240.915 141.139 240.875C141.039 240.825 140.909 240.755 140.749 240.665C140.459 240.515 140.209 240.405 139.999 240.335C139.789 240.255 139.529 240.215 139.219 240.215C138.849 240.215 138.554 240.29 138.334 240.44C138.124 240.59 138.019 240.795 138.019 241.055C138.019 241.305 138.129 241.495 138.349 241.625C138.569 241.755 138.994 241.885 139.624 242.015C140.294 242.155 140.819 242.315 141.199 242.495C141.579 242.675 141.849 242.9 142.009 243.17C142.179 243.44 142.264 243.785 142.264 244.205C142.264 244.885 141.979 245.43 141.409 245.84C140.849 246.25 140.099 246.455 139.159 246.455Z" fill="white"/>
<g filter="url(#filter7_d)">
<rect x="417.733" y="222.984" width="149.276" height="181.91" rx="14" fill="white"/>
</g>
<rect x="417.733" y="222.984" width="149.276" height="122.115" rx="14" fill="white"/>
<rect opacity="0.06" x="417.733" y="259.141" width="149.276" height="71.1049" fill="#D93464"/>
<path d="M417.733 236.984C417.733 229.252 424.001 222.984 431.733 222.984H553.009C560.741 222.984 567.009 229.252 567.009 236.984V261.186H417.733V236.984Z" fill="#D93464"/>
<path d="M510.546 343.022V349.205H502.812V343.022H510.546ZM511.32 341.477H502.038C501.613 341.477 501.265 341.824 501.265 342.25V349.978C501.265 350.403 501.613 350.751 502.038 350.751H511.32C511.745 350.751 512.093 350.403 512.093 349.978V347.273L515.187 350.365V341.863L512.093 344.955V342.25C512.093 341.824 511.745 341.477 511.32 341.477Z" fill="#D93464"/>
<path d="M474.968 347.531C476.145 347.531 477.095 346.582 477.095 345.405V341.155C477.095 339.979 476.145 339.029 474.968 339.029C473.791 339.029 472.841 339.979 472.841 341.155V345.405C472.841 346.582 473.791 347.531 474.968 347.531ZM474.259 341.155C474.259 340.765 474.578 340.446 474.968 340.446C475.358 340.446 475.677 340.765 475.677 341.155V345.405C475.677 345.795 475.358 346.114 474.968 346.114C474.578 346.114 474.259 345.795 474.259 345.405V341.155ZM478.513 345.405C478.513 347.361 476.925 348.948 474.968 348.948C473.011 348.948 471.423 347.361 471.423 345.405H470.005C470.005 347.906 471.855 349.961 474.259 350.308V352.49H475.677V350.308C478.08 349.961 479.931 347.906 479.931 345.405H478.513Z" fill="#D93464"/>
<path opacity="0.4" d="M501.66 292.843C502.367 293.251 502.367 294.271 501.66 294.679L487.359 302.929C486.653 303.337 485.77 302.827 485.77 302.011L485.77 285.51C485.77 284.694 486.653 284.184 487.359 284.592L501.66 292.843Z" stroke="#D93464" stroke-width="1.88"/>
<path d="M442.438 241.463C442.167 241.463 441.948 241.383 441.78 241.225C441.621 241.057 441.542 240.833 441.542 240.553V232.363C441.542 232.092 441.616 231.882 441.766 231.733C441.924 231.583 442.139 231.509 442.41 231.509H445.854C446.908 231.509 447.73 231.775 448.318 232.307C448.906 232.829 449.2 233.567 449.2 234.519C449.2 235.471 448.906 236.213 448.318 236.745C447.73 237.277 446.908 237.543 445.854 237.543H443.348V240.553C443.348 240.833 443.264 241.057 443.096 241.225C442.937 241.383 442.718 241.463 442.438 241.463ZM445.63 236.157C446.871 236.157 447.492 235.615 447.492 234.533C447.492 233.45 446.871 232.909 445.63 232.909H443.348V236.157H445.63ZM453.42 234.365C454.372 234.365 455.077 234.603 455.534 235.079C456.001 235.545 456.234 236.259 456.234 237.221V240.637C456.234 240.889 456.159 241.089 456.01 241.239C455.861 241.379 455.655 241.449 455.394 241.449C455.151 241.449 454.951 241.374 454.792 241.225C454.643 241.075 454.568 240.879 454.568 240.637V240.329C454.409 240.693 454.157 240.977 453.812 241.183C453.476 241.388 453.084 241.491 452.636 241.491C452.179 241.491 451.763 241.397 451.39 241.211C451.017 241.024 450.723 240.767 450.508 240.441C450.293 240.114 450.186 239.75 450.186 239.349C450.186 238.845 450.312 238.448 450.564 238.159C450.825 237.869 451.245 237.659 451.824 237.529C452.403 237.398 453.201 237.333 454.218 237.333H454.568V237.011C454.568 236.553 454.47 236.222 454.274 236.017C454.078 235.802 453.761 235.695 453.322 235.695C453.051 235.695 452.776 235.737 452.496 235.821C452.216 235.895 451.885 236.007 451.502 236.157C451.259 236.278 451.082 236.339 450.97 236.339C450.802 236.339 450.662 236.278 450.55 236.157C450.447 236.035 450.396 235.877 450.396 235.681C450.396 235.522 450.433 235.387 450.508 235.275C450.592 235.153 450.727 235.041 450.914 234.939C451.241 234.761 451.628 234.621 452.076 234.519C452.533 234.416 452.981 234.365 453.42 234.365ZM452.986 240.231C453.453 240.231 453.831 240.077 454.12 239.769C454.419 239.451 454.568 239.045 454.568 238.551V238.257H454.316C453.691 238.257 453.205 238.285 452.86 238.341C452.515 238.397 452.267 238.495 452.118 238.635C451.969 238.775 451.894 238.966 451.894 239.209C451.894 239.507 451.997 239.755 452.202 239.951C452.417 240.137 452.678 240.231 452.986 240.231ZM461.835 234.393C462.077 234.374 462.269 234.425 462.409 234.547C462.549 234.668 462.619 234.85 462.619 235.093C462.619 235.345 462.558 235.531 462.437 235.653C462.315 235.774 462.096 235.853 461.779 235.891L461.359 235.933C460.808 235.989 460.402 236.175 460.141 236.493C459.889 236.81 459.763 237.207 459.763 237.683V240.623C459.763 240.893 459.679 241.103 459.511 241.253C459.343 241.393 459.133 241.463 458.881 241.463C458.629 241.463 458.419 241.393 458.251 241.253C458.092 241.103 458.013 240.893 458.013 240.623V235.205C458.013 234.943 458.092 234.743 458.251 234.603C458.419 234.463 458.624 234.393 458.867 234.393C459.109 234.393 459.305 234.463 459.455 234.603C459.604 234.733 459.679 234.925 459.679 235.177V235.737C459.856 235.326 460.117 235.009 460.463 234.785C460.817 234.561 461.209 234.435 461.639 234.407L461.835 234.393ZM468.653 239.503C468.812 239.503 468.938 239.563 469.031 239.685C469.134 239.806 469.185 239.969 469.185 240.175C469.185 240.464 469.013 240.707 468.667 240.903C468.35 241.08 467.991 241.225 467.589 241.337C467.188 241.439 466.805 241.491 466.441 241.491C465.34 241.491 464.467 241.173 463.823 240.539C463.179 239.904 462.857 239.036 462.857 237.935C462.857 237.235 462.997 236.614 463.277 236.073C463.557 235.531 463.949 235.111 464.453 234.813C464.967 234.514 465.545 234.365 466.189 234.365C466.805 234.365 467.342 234.5 467.799 234.771C468.257 235.041 468.611 235.424 468.863 235.919C469.115 236.413 469.241 236.997 469.241 237.669C469.241 238.07 469.064 238.271 468.709 238.271H464.579C464.635 238.915 464.817 239.391 465.125 239.699C465.433 239.997 465.881 240.147 466.469 240.147C466.768 240.147 467.029 240.109 467.253 240.035C467.487 239.96 467.748 239.857 468.037 239.727C468.317 239.577 468.523 239.503 468.653 239.503ZM466.231 235.597C465.755 235.597 465.373 235.746 465.083 236.045C464.803 236.343 464.635 236.773 464.579 237.333H467.743C467.725 236.763 467.585 236.334 467.323 236.045C467.062 235.746 466.698 235.597 466.231 235.597ZM474.649 234.365C475.47 234.365 476.081 234.598 476.483 235.065C476.884 235.531 477.085 236.236 477.085 237.179V240.623C477.085 240.884 477.005 241.089 476.847 241.239C476.697 241.388 476.487 241.463 476.217 241.463C475.946 241.463 475.731 241.388 475.573 241.239C475.414 241.089 475.335 240.884 475.335 240.623V237.277C475.335 236.745 475.232 236.357 475.027 236.115C474.831 235.872 474.518 235.751 474.089 235.751C473.585 235.751 473.179 235.909 472.871 236.227C472.572 236.544 472.423 236.969 472.423 237.501V240.623C472.423 240.884 472.343 241.089 472.185 241.239C472.026 241.388 471.811 241.463 471.541 241.463C471.27 241.463 471.055 241.388 470.897 241.239C470.747 241.089 470.673 240.884 470.673 240.623V235.205C470.673 234.962 470.752 234.766 470.911 234.617C471.069 234.467 471.284 234.393 471.555 234.393C471.797 234.393 471.993 234.467 472.143 234.617C472.301 234.757 472.381 234.943 472.381 235.177V235.555C472.614 235.172 472.927 234.878 473.319 234.673C473.711 234.467 474.154 234.365 474.649 234.365ZM482.418 240.161C482.885 240.189 483.118 240.399 483.118 240.791C483.118 241.015 483.025 241.187 482.838 241.309C482.661 241.421 482.404 241.467 482.068 241.449L481.69 241.421C480.122 241.309 479.338 240.469 479.338 238.901V235.849H478.638C478.386 235.849 478.19 235.793 478.05 235.681C477.919 235.569 477.854 235.405 477.854 235.191C477.854 234.976 477.919 234.813 478.05 234.701C478.19 234.589 478.386 234.533 478.638 234.533H479.338V233.245C479.338 232.993 479.417 232.792 479.576 232.643C479.735 232.493 479.949 232.419 480.22 232.419C480.481 232.419 480.691 232.493 480.85 232.643C481.009 232.792 481.088 232.993 481.088 233.245V234.533H482.278C482.53 234.533 482.721 234.589 482.852 234.701C482.992 234.813 483.062 234.976 483.062 235.191C483.062 235.405 482.992 235.569 482.852 235.681C482.721 235.793 482.53 235.849 482.278 235.849H481.088V239.027C481.088 239.717 481.405 240.086 482.04 240.133L482.418 240.161ZM488.517 238.327C488.246 238.327 488.041 238.266 487.901 238.145C487.77 238.023 487.705 237.855 487.705 237.641C487.705 237.426 487.77 237.258 487.901 237.137C488.041 237.006 488.246 236.941 488.517 236.941H491.401C491.672 236.941 491.872 237.006 492.003 237.137C492.143 237.258 492.213 237.426 492.213 237.641C492.213 237.855 492.143 238.023 492.003 238.145C491.872 238.266 491.672 238.327 491.401 238.327H488.517ZM501.258 240.161C501.725 240.189 501.958 240.399 501.958 240.791C501.958 241.015 501.865 241.187 501.678 241.309C501.501 241.421 501.244 241.467 500.908 241.449L500.53 241.421C498.962 241.309 498.178 240.469 498.178 238.901V235.849H497.478C497.226 235.849 497.03 235.793 496.89 235.681C496.759 235.569 496.694 235.405 496.694 235.191C496.694 234.976 496.759 234.813 496.89 234.701C497.03 234.589 497.226 234.533 497.478 234.533H498.178V233.245C498.178 232.993 498.257 232.792 498.416 232.643C498.575 232.493 498.789 232.419 499.06 232.419C499.321 232.419 499.531 232.493 499.69 232.643C499.849 232.792 499.928 232.993 499.928 233.245V234.533H501.118C501.37 234.533 501.561 234.589 501.692 234.701C501.832 234.813 501.902 234.976 501.902 235.191C501.902 235.405 501.832 235.569 501.692 235.681C501.561 235.793 501.37 235.849 501.118 235.849H499.928V239.027C499.928 239.717 500.245 240.086 500.88 240.133L501.258 240.161ZM508.288 239.503C508.447 239.503 508.573 239.563 508.666 239.685C508.769 239.806 508.82 239.969 508.82 240.175C508.82 240.464 508.647 240.707 508.302 240.903C507.985 241.08 507.625 241.225 507.224 241.337C506.823 241.439 506.44 241.491 506.076 241.491C504.975 241.491 504.102 241.173 503.458 240.539C502.814 239.904 502.492 239.036 502.492 237.935C502.492 237.235 502.632 236.614 502.912 236.073C503.192 235.531 503.584 235.111 504.088 234.813C504.601 234.514 505.18 234.365 505.824 234.365C506.44 234.365 506.977 234.5 507.434 234.771C507.891 235.041 508.246 235.424 508.498 235.919C508.75 236.413 508.876 236.997 508.876 237.669C508.876 238.07 508.699 238.271 508.344 238.271H504.214C504.27 238.915 504.452 239.391 504.76 239.699C505.068 239.997 505.516 240.147 506.104 240.147C506.403 240.147 506.664 240.109 506.888 240.035C507.121 239.96 507.383 239.857 507.672 239.727C507.952 239.577 508.157 239.503 508.288 239.503ZM505.866 235.597C505.39 235.597 505.007 235.746 504.718 236.045C504.438 236.343 504.27 236.773 504.214 237.333H507.378C507.359 236.763 507.219 236.334 506.958 236.045C506.697 235.746 506.333 235.597 505.866 235.597ZM513.275 234.365C514.227 234.365 514.932 234.603 515.389 235.079C515.856 235.545 516.089 236.259 516.089 237.221V240.637C516.089 240.889 516.015 241.089 515.865 241.239C515.716 241.379 515.511 241.449 515.249 241.449C515.007 241.449 514.806 241.374 514.647 241.225C514.498 241.075 514.423 240.879 514.423 240.637V240.329C514.265 240.693 514.013 240.977 513.667 241.183C513.331 241.388 512.939 241.491 512.491 241.491C512.034 241.491 511.619 241.397 511.245 241.211C510.872 241.024 510.578 240.767 510.363 240.441C510.149 240.114 510.041 239.75 510.041 239.349C510.041 238.845 510.167 238.448 510.419 238.159C510.681 237.869 511.101 237.659 511.679 237.529C512.258 237.398 513.056 237.333 514.073 237.333H514.423V237.011C514.423 236.553 514.325 236.222 514.129 236.017C513.933 235.802 513.616 235.695 513.177 235.695C512.907 235.695 512.631 235.737 512.351 235.821C512.071 235.895 511.74 236.007 511.357 236.157C511.115 236.278 510.937 236.339 510.825 236.339C510.657 236.339 510.517 236.278 510.405 236.157C510.303 236.035 510.251 235.877 510.251 235.681C510.251 235.522 510.289 235.387 510.363 235.275C510.447 235.153 510.583 235.041 510.769 234.939C511.096 234.761 511.483 234.621 511.931 234.519C512.389 234.416 512.837 234.365 513.275 234.365ZM512.841 240.231C513.308 240.231 513.686 240.077 513.975 239.769C514.274 239.451 514.423 239.045 514.423 238.551V238.257H514.171C513.546 238.257 513.061 238.285 512.715 238.341C512.37 238.397 512.123 238.495 511.973 238.635C511.824 238.775 511.749 238.966 511.749 239.209C511.749 239.507 511.852 239.755 512.057 239.951C512.272 240.137 512.533 240.231 512.841 240.231ZM520.906 241.491C520.225 241.491 519.623 241.346 519.1 241.057C518.587 240.767 518.19 240.357 517.91 239.825C517.63 239.293 517.49 238.672 517.49 237.963C517.49 237.253 517.635 236.628 517.924 236.087C518.223 235.536 518.638 235.111 519.17 234.813C519.702 234.514 520.313 234.365 521.004 234.365C521.368 234.365 521.732 234.416 522.096 234.519C522.469 234.621 522.796 234.761 523.076 234.939C523.375 235.135 523.524 235.382 523.524 235.681C523.524 235.886 523.473 236.054 523.37 236.185C523.277 236.306 523.151 236.367 522.992 236.367C522.889 236.367 522.782 236.343 522.67 236.297C522.558 236.25 522.446 236.194 522.334 236.129C522.129 236.007 521.933 235.914 521.746 235.849C521.559 235.774 521.345 235.737 521.102 235.737C520.523 235.737 520.075 235.928 519.758 236.311C519.45 236.684 519.296 237.225 519.296 237.935C519.296 238.635 519.45 239.176 519.758 239.559C520.075 239.932 520.523 240.119 521.102 240.119C521.335 240.119 521.541 240.086 521.718 240.021C521.905 239.946 522.11 239.848 522.334 239.727C522.474 239.643 522.595 239.582 522.698 239.545C522.801 239.498 522.903 239.475 523.006 239.475C523.155 239.475 523.281 239.54 523.384 239.671C523.487 239.801 523.538 239.965 523.538 240.161C523.538 240.319 523.501 240.459 523.426 240.581C523.361 240.693 523.249 240.795 523.09 240.889C522.801 241.075 522.465 241.225 522.082 241.337C521.699 241.439 521.307 241.491 520.906 241.491ZM528.708 234.365C530.313 234.365 531.116 235.303 531.116 237.179V240.623C531.116 240.884 531.037 241.089 530.878 241.239C530.729 241.388 530.519 241.463 530.248 241.463C529.977 241.463 529.763 241.388 529.604 241.239C529.445 241.089 529.366 240.884 529.366 240.623V237.179C529.366 236.684 529.263 236.325 529.058 236.101C528.862 235.867 528.549 235.751 528.12 235.751C527.616 235.751 527.21 235.909 526.902 236.227C526.603 236.544 526.454 236.969 526.454 237.501V240.623C526.454 240.884 526.375 241.089 526.216 241.239C526.057 241.388 525.843 241.463 525.572 241.463C525.301 241.463 525.087 241.388 524.928 241.239C524.779 241.089 524.704 240.884 524.704 240.623V232.251C524.704 232.008 524.783 231.812 524.942 231.663C525.11 231.513 525.325 231.439 525.586 231.439C525.847 231.439 526.057 231.509 526.216 231.649C526.375 231.789 526.454 231.98 526.454 232.223V235.485C526.687 235.121 526.995 234.845 527.378 234.659C527.77 234.463 528.213 234.365 528.708 234.365ZM538.311 239.503C538.47 239.503 538.596 239.563 538.689 239.685C538.792 239.806 538.843 239.969 538.843 240.175C538.843 240.464 538.671 240.707 538.325 240.903C538.008 241.08 537.649 241.225 537.247 241.337C536.846 241.439 536.463 241.491 536.099 241.491C534.998 241.491 534.125 241.173 533.481 240.539C532.837 239.904 532.515 239.036 532.515 237.935C532.515 237.235 532.655 236.614 532.935 236.073C533.215 235.531 533.607 235.111 534.111 234.813C534.625 234.514 535.203 234.365 535.847 234.365C536.463 234.365 537 234.5 537.457 234.771C537.915 235.041 538.269 235.424 538.521 235.919C538.773 236.413 538.899 236.997 538.899 237.669C538.899 238.07 538.722 238.271 538.367 238.271H534.237C534.293 238.915 534.475 239.391 534.783 239.699C535.091 239.997 535.539 240.147 536.127 240.147C536.426 240.147 536.687 240.109 536.911 240.035C537.145 239.96 537.406 239.857 537.695 239.727C537.975 239.577 538.181 239.503 538.311 239.503ZM535.889 235.597C535.413 235.597 535.031 235.746 534.741 236.045C534.461 236.343 534.293 236.773 534.237 237.333H537.401C537.383 236.763 537.243 236.334 536.981 236.045C536.72 235.746 536.356 235.597 535.889 235.597ZM544.153 234.393C544.396 234.374 544.587 234.425 544.727 234.547C544.867 234.668 544.937 234.85 544.937 235.093C544.937 235.345 544.876 235.531 544.755 235.653C544.634 235.774 544.414 235.853 544.097 235.891L543.677 235.933C543.126 235.989 542.72 236.175 542.459 236.493C542.207 236.81 542.081 237.207 542.081 237.683V240.623C542.081 240.893 541.997 241.103 541.829 241.253C541.661 241.393 541.451 241.463 541.199 241.463C540.947 241.463 540.737 241.393 540.569 241.253C540.41 241.103 540.331 240.893 540.331 240.623V235.205C540.331 234.943 540.41 234.743 540.569 234.603C540.737 234.463 540.942 234.393 541.185 234.393C541.428 234.393 541.624 234.463 541.773 234.603C541.922 234.733 541.997 234.925 541.997 235.177V235.737C542.174 235.326 542.436 235.009 542.781 234.785C543.136 234.561 543.528 234.435 543.957 234.407L544.153 234.393ZM477.378 246.365C478.125 246.365 478.694 246.589 479.086 247.037C479.487 247.475 479.688 248.189 479.688 249.179V252.623C479.688 252.893 479.604 253.103 479.436 253.253C479.277 253.393 479.067 253.463 478.806 253.463C478.554 253.463 478.344 253.393 478.176 253.253C478.017 253.103 477.938 252.893 477.938 252.623V249.179C477.938 248.665 477.845 248.301 477.658 248.087C477.481 247.863 477.205 247.751 476.832 247.751C476.375 247.751 476.011 247.909 475.74 248.227C475.469 248.535 475.334 248.959 475.334 249.501V252.623C475.334 252.893 475.25 253.103 475.082 253.253C474.923 253.393 474.718 253.463 474.466 253.463C474.214 253.463 474.004 253.393 473.836 253.253C473.668 253.103 473.584 252.893 473.584 252.623V249.179C473.584 248.665 473.491 248.301 473.304 248.087C473.127 247.863 472.851 247.751 472.478 247.751C472.021 247.751 471.657 247.909 471.386 248.227C471.125 248.535 470.994 248.959 470.994 249.501V252.623C470.994 252.893 470.91 253.103 470.742 253.253C470.574 253.393 470.364 253.463 470.112 253.463C469.86 253.463 469.65 253.393 469.482 253.253C469.323 253.103 469.244 252.893 469.244 252.623V247.205C469.244 246.943 469.328 246.743 469.496 246.603C469.664 246.463 469.874 246.393 470.126 246.393C470.369 246.393 470.565 246.463 470.714 246.603C470.873 246.733 470.952 246.925 470.952 247.177V247.513C471.167 247.139 471.451 246.855 471.806 246.659C472.17 246.463 472.585 246.365 473.052 246.365C474.079 246.365 474.765 246.794 475.11 247.653C475.315 247.261 475.619 246.948 476.02 246.715C476.421 246.481 476.874 246.365 477.378 246.365ZM486.885 251.503C487.043 251.503 487.169 251.563 487.263 251.685C487.365 251.806 487.417 251.969 487.417 252.175C487.417 252.464 487.244 252.707 486.899 252.903C486.581 253.08 486.222 253.225 485.821 253.337C485.419 253.439 485.037 253.491 484.673 253.491C483.571 253.491 482.699 253.173 482.055 252.539C481.411 251.904 481.089 251.036 481.089 249.935C481.089 249.235 481.229 248.614 481.509 248.073C481.789 247.531 482.181 247.111 482.685 246.813C483.198 246.514 483.777 246.365 484.421 246.365C485.037 246.365 485.573 246.5 486.031 246.771C486.488 247.041 486.843 247.424 487.095 247.919C487.347 248.413 487.473 248.997 487.473 249.669C487.473 250.07 487.295 250.271 486.941 250.271H482.811C482.867 250.915 483.049 251.391 483.357 251.699C483.665 251.997 484.113 252.147 484.701 252.147C484.999 252.147 485.261 252.109 485.485 252.035C485.718 251.96 485.979 251.857 486.269 251.727C486.549 251.577 486.754 251.503 486.885 251.503ZM484.463 247.597C483.987 247.597 483.604 247.746 483.315 248.045C483.035 248.343 482.867 248.773 482.811 249.333H485.975C485.956 248.763 485.816 248.334 485.555 248.045C485.293 247.746 484.929 247.597 484.463 247.597ZM494.322 251.503C494.481 251.503 494.607 251.563 494.7 251.685C494.803 251.806 494.854 251.969 494.854 252.175C494.854 252.464 494.681 252.707 494.336 252.903C494.019 253.08 493.659 253.225 493.258 253.337C492.857 253.439 492.474 253.491 492.11 253.491C491.009 253.491 490.136 253.173 489.492 252.539C488.848 251.904 488.526 251.036 488.526 249.935C488.526 249.235 488.666 248.614 488.946 248.073C489.226 247.531 489.618 247.111 490.122 246.813C490.635 246.514 491.214 246.365 491.858 246.365C492.474 246.365 493.011 246.5 493.468 246.771C493.925 247.041 494.28 247.424 494.532 247.919C494.784 248.413 494.91 248.997 494.91 249.669C494.91 250.07 494.733 250.271 494.378 250.271H490.248C490.304 250.915 490.486 251.391 490.794 251.699C491.102 251.997 491.55 252.147 492.138 252.147C492.437 252.147 492.698 252.109 492.922 252.035C493.155 251.96 493.417 251.857 493.706 251.727C493.986 251.577 494.191 251.503 494.322 251.503ZM491.9 247.597C491.424 247.597 491.041 247.746 490.752 248.045C490.472 248.343 490.304 248.773 490.248 249.333H493.412C493.393 248.763 493.253 248.334 492.992 248.045C492.731 247.746 492.367 247.597 491.9 247.597ZM499.802 252.161C500.269 252.189 500.502 252.399 500.502 252.791C500.502 253.015 500.409 253.187 500.222 253.309C500.045 253.421 499.788 253.467 499.452 253.449L499.074 253.421C497.506 253.309 496.722 252.469 496.722 250.901V247.849H496.022C495.77 247.849 495.574 247.793 495.434 247.681C495.303 247.569 495.238 247.405 495.238 247.191C495.238 246.976 495.303 246.813 495.434 246.701C495.574 246.589 495.77 246.533 496.022 246.533H496.722V245.245C496.722 244.993 496.801 244.792 496.96 244.643C497.119 244.493 497.333 244.419 497.604 244.419C497.865 244.419 498.075 244.493 498.234 244.643C498.393 244.792 498.472 244.993 498.472 245.245V246.533H499.662C499.914 246.533 500.105 246.589 500.236 246.701C500.376 246.813 500.446 246.976 500.446 247.191C500.446 247.405 500.376 247.569 500.236 247.681C500.105 247.793 499.914 247.849 499.662 247.849H498.472V251.027C498.472 251.717 498.789 252.086 499.424 252.133L499.802 252.161ZM502.282 253.463C502.03 253.463 501.82 253.393 501.652 253.253C501.493 253.103 501.414 252.893 501.414 252.623V247.219C501.414 246.948 501.493 246.743 501.652 246.603C501.82 246.463 502.03 246.393 502.282 246.393C502.534 246.393 502.744 246.463 502.912 246.603C503.08 246.743 503.164 246.948 503.164 247.219V252.623C503.164 252.893 503.08 253.103 502.912 253.253C502.744 253.393 502.534 253.463 502.282 253.463ZM502.282 245.147C501.965 245.147 501.713 245.063 501.526 244.895C501.339 244.717 501.246 244.489 501.246 244.209C501.246 243.929 501.339 243.705 501.526 243.537C501.713 243.369 501.965 243.285 502.282 243.285C502.59 243.285 502.837 243.369 503.024 243.537C503.22 243.705 503.318 243.929 503.318 244.209C503.318 244.489 503.225 244.717 503.038 244.895C502.851 245.063 502.599 245.147 502.282 245.147ZM508.945 246.365C509.766 246.365 510.377 246.598 510.779 247.065C511.18 247.531 511.381 248.236 511.381 249.179V252.623C511.381 252.884 511.301 253.089 511.143 253.239C510.993 253.388 510.783 253.463 510.513 253.463C510.242 253.463 510.027 253.388 509.869 253.239C509.71 253.089 509.631 252.884 509.631 252.623V249.277C509.631 248.745 509.528 248.357 509.323 248.115C509.127 247.872 508.814 247.751 508.385 247.751C507.881 247.751 507.475 247.909 507.167 248.227C506.868 248.544 506.719 248.969 506.719 249.501V252.623C506.719 252.884 506.639 253.089 506.481 253.239C506.322 253.388 506.107 253.463 505.837 253.463C505.566 253.463 505.351 253.388 505.193 253.239C505.043 253.089 504.969 252.884 504.969 252.623V247.205C504.969 246.962 505.048 246.766 505.207 246.617C505.365 246.467 505.58 246.393 505.851 246.393C506.093 246.393 506.289 246.467 506.439 246.617C506.597 246.757 506.677 246.943 506.677 247.177V247.555C506.91 247.172 507.223 246.878 507.615 246.673C508.007 246.467 508.45 246.365 508.945 246.365ZM518.954 246.393C519.215 246.393 519.425 246.467 519.584 246.617C519.743 246.766 519.822 246.967 519.822 247.219V252.749C519.822 253.822 519.523 254.634 518.926 255.185C518.329 255.735 517.447 256.011 516.28 256.011C515.263 256.011 514.413 255.819 513.732 255.437C513.387 255.231 513.214 254.984 513.214 254.695C513.214 254.489 513.261 254.326 513.354 254.205C513.457 254.083 513.587 254.023 513.746 254.023C513.83 254.023 513.933 254.041 514.054 254.079C514.175 254.125 514.301 254.177 514.432 254.233C514.768 254.373 515.067 254.48 515.328 254.555C515.599 254.629 515.907 254.667 516.252 254.667C517.475 254.667 518.086 254.069 518.086 252.875V251.979C517.881 252.361 517.582 252.66 517.19 252.875C516.798 253.08 516.35 253.183 515.846 253.183C515.249 253.183 514.717 253.043 514.25 252.763C513.793 252.473 513.433 252.072 513.172 251.559C512.911 251.045 512.78 250.453 512.78 249.781C512.78 249.109 512.906 248.516 513.158 248.003C513.419 247.48 513.783 247.079 514.25 246.799C514.717 246.509 515.249 246.365 515.846 246.365C516.35 246.365 516.798 246.472 517.19 246.687C517.582 246.892 517.881 247.186 518.086 247.569V247.205C518.086 246.962 518.165 246.766 518.324 246.617C518.483 246.467 518.693 246.393 518.954 246.393ZM516.308 251.825C516.868 251.825 517.302 251.643 517.61 251.279C517.927 250.915 518.086 250.415 518.086 249.781C518.086 249.137 517.927 248.633 517.61 248.269C517.302 247.905 516.868 247.723 516.308 247.723C515.757 247.723 515.323 247.905 515.006 248.269C514.689 248.633 514.53 249.137 514.53 249.781C514.53 250.415 514.689 250.915 515.006 251.279C515.323 251.643 515.757 251.825 516.308 251.825Z" fill="white"/>
<path d="M520.724 369.261H464.768C462.144 369.261 460.009 371.424 460.009 374.081V387.18C460.009 389.837 462.144 392 464.768 392H520.785C523.409 392 525.544 389.837 525.544 387.18V374.081C525.544 371.424 523.348 369.261 520.724 369.261Z" fill="#D93464"/>
<path d="M482.149 379.904C482.718 380.063 483.157 380.352 483.465 380.772C483.782 381.192 483.941 381.705 483.941 382.312C483.941 383.152 483.637 383.81 483.031 384.286C482.433 384.762 481.607 385 480.553 385H476.941C476.67 385 476.455 384.925 476.297 384.776C476.147 384.627 476.073 384.417 476.073 384.146V375.984C476.073 375.713 476.147 375.503 476.297 375.354C476.455 375.205 476.67 375.13 476.941 375.13H480.413C481.439 375.13 482.242 375.359 482.821 375.816C483.409 376.264 483.703 376.894 483.703 377.706C483.703 378.229 483.563 378.681 483.283 379.064C483.012 379.447 482.634 379.727 482.149 379.904ZM477.837 379.288H480.119C481.36 379.288 481.981 378.826 481.981 377.902C481.981 377.435 481.827 377.09 481.519 376.866C481.211 376.642 480.744 376.53 480.119 376.53H477.837V379.288ZM480.357 383.6C481.01 383.6 481.486 383.483 481.785 383.25C482.083 383.017 482.233 382.653 482.233 382.158C482.233 381.663 482.079 381.295 481.771 381.052C481.472 380.809 481.001 380.688 480.357 380.688H477.837V383.6H480.357ZM488.597 385.112C487.897 385.112 487.281 384.967 486.749 384.678C486.227 384.389 485.821 383.973 485.531 383.432C485.242 382.891 485.097 382.261 485.097 381.542C485.097 380.823 485.242 380.198 485.531 379.666C485.821 379.125 486.227 378.709 486.749 378.42C487.281 378.131 487.897 377.986 488.597 377.986C489.297 377.986 489.909 378.131 490.431 378.42C490.963 378.709 491.369 379.125 491.649 379.666C491.939 380.198 492.083 380.823 492.083 381.542C492.083 382.261 491.939 382.891 491.649 383.432C491.369 383.973 490.963 384.389 490.431 384.678C489.909 384.967 489.297 385.112 488.597 385.112ZM488.583 383.754C489.153 383.754 489.587 383.567 489.885 383.194C490.184 382.821 490.333 382.27 490.333 381.542C490.333 380.823 490.184 380.277 489.885 379.904C489.587 379.521 489.157 379.33 488.597 379.33C488.037 379.33 487.603 379.521 487.295 379.904C486.997 380.277 486.847 380.823 486.847 381.542C486.847 382.27 486.997 382.821 487.295 383.194C487.594 383.567 488.023 383.754 488.583 383.754ZM496.65 385.112C495.95 385.112 495.334 384.967 494.802 384.678C494.279 384.389 493.873 383.973 493.584 383.432C493.295 382.891 493.15 382.261 493.15 381.542C493.15 380.823 493.295 380.198 493.584 379.666C493.873 379.125 494.279 378.709 494.802 378.42C495.334 378.131 495.95 377.986 496.65 377.986C497.35 377.986 497.961 378.131 498.484 378.42C499.016 378.709 499.422 379.125 499.702 379.666C499.991 380.198 500.136 380.823 500.136 381.542C500.136 382.261 499.991 382.891 499.702 383.432C499.422 383.973 499.016 384.389 498.484 384.678C497.961 384.967 497.35 385.112 496.65 385.112ZM496.636 383.754C497.205 383.754 497.639 383.567 497.938 383.194C498.237 382.821 498.386 382.27 498.386 381.542C498.386 380.823 498.237 380.277 497.938 379.904C497.639 379.521 497.21 379.33 496.65 379.33C496.09 379.33 495.656 379.521 495.348 379.904C495.049 380.277 494.9 380.823 494.9 381.542C494.9 382.27 495.049 382.821 495.348 383.194C495.647 383.567 496.076 383.754 496.636 383.754ZM507.671 383.642C507.858 383.819 507.951 384.02 507.951 384.244C507.951 384.459 507.872 384.65 507.713 384.818C507.564 384.986 507.386 385.07 507.181 385.07C506.976 385.07 506.784 384.986 506.607 384.818L503.331 381.85V384.244C503.331 384.515 503.247 384.72 503.079 384.86C502.911 385 502.701 385.07 502.449 385.07C502.197 385.07 501.987 385 501.819 384.86C501.66 384.72 501.581 384.515 501.581 384.244V375.886C501.581 375.615 501.66 375.41 501.819 375.27C501.987 375.13 502.197 375.06 502.449 375.06C502.701 375.06 502.911 375.13 503.079 375.27C503.247 375.41 503.331 375.615 503.331 375.886V381.15L506.327 378.28C506.495 378.112 506.686 378.028 506.901 378.028C507.116 378.028 507.302 378.107 507.461 378.266C507.62 378.425 507.699 378.611 507.699 378.826C507.699 379.041 507.61 379.237 507.433 379.414L505.235 381.458L507.671 383.642Z" fill="white"/>
<defs>
<filter id="filter0_d" x="135.726" y="0" width="403.01" height="342.703" filterUnits="userSpaceOnUse" color-interpolation-filters="sRGB">
<feFlood flood-opacity="0" result="BackgroundImageFix"/>
<feColorMatrix in="SourceAlpha" type="matrix" values="0 0 0 0 0 0 0 0 0 0 0 0 0 0 0 0 0 0 127 0"/>
<feOffset dy="4"/>
<feGaussianBlur stdDeviation="7"/>
<feColorMatrix type="matrix" values="0 0 0 0 0.184314 0 0 0 0 0.396078 0 0 0 0 0.462745 0 0 0 0.16 0"/>
<feBlend mode="normal" in2="BackgroundImageFix" result="effect1_dropShadow"/>
<feBlend mode="normal" in="SourceGraphic" in2="effect1_dropShadow" result="shape"/>
</filter>
<filter id="filter1_d" x="336.992" y="62.852" width="177.276" height="264.06" filterUnits="userSpaceOnUse" color-interpolation-filters="sRGB">
<feFlood flood-opacity="0" result="BackgroundImageFix"/>
<feColorMatrix in="SourceAlpha" type="matrix" values="0 0 0 0 0 0 0 0 0 0 0 0 0 0 0 0 0 0 127 0"/>
<feOffset dy="6"/>
<feGaussianBlur stdDeviation="7"/>
<feColorMatrix type="matrix" values="0 0 0 0 0.184314 0 0 0 0 0.396078 0 0 0 0 0.462745 0 0 0 0.2 0"/>
<feBlend mode="normal" in2="BackgroundImageFix" result="effect1_dropShadow"/>
<feBlend mode="normal" in="SourceGraphic" in2="effect1_dropShadow" result="shape"/>
</filter>
<filter id="filter2_d" x="462.745" y="25.7303" width="52.7678" height="31.8241" filterUnits="userSpaceOnUse" color-interpolation-filters="sRGB">
<feFlood flood-opacity="0" result="BackgroundImageFix"/>
<feColorMatrix in="SourceAlpha" type="matrix" values="0 0 0 0 0 0 0 0 0 0 0 0 0 0 0 0 0 0 127 0"/>
<feOffset dy="10"/>
<feGaussianBlur stdDeviation="5"/>
<feColorMatrix type="matrix" values="0 0 0 0 0 0 0 0 0 0 0 0 0 0 0 0 0 0 0.1 0"/>
<feBlend mode="normal" in2="BackgroundImageFix" result="effect1_dropShadow"/>
<feBlend mode="normal" in="SourceGraphic" in2="effect1_dropShadow" result="shape"/>
</filter>
<filter id="filter3_d" x="424.516" y="25.7303" width="52.7678" height="31.8241" filterUnits="userSpaceOnUse" color-interpolation-filters="sRGB">
<feFlood flood-opacity="0" result="BackgroundImageFix"/>
<feColorMatrix in="SourceAlpha" type="matrix" values="0 0 0 0 0 0 0 0 0 0 0 0 0 0 0 0 0 0 127 0"/>
<feOffset dy="10"/>
<feGaussianBlur stdDeviation="5"/>
<feColorMatrix type="matrix" values="0 0 0 0 0 0 0 0 0 0 0 0 0 0 0 0 0 0 0.1 0"/>
<feBlend mode="normal" in2="BackgroundImageFix" result="effect1_dropShadow"/>
<feBlend mode="normal" in="SourceGraphic" in2="effect1_dropShadow" result="shape"/>
</filter>
<filter id="filter4_d" x="386.287" y="25.7303" width="52.7678" height="31.8241" filterUnits="userSpaceOnUse" color-interpolation-filters="sRGB">
<feFlood flood-opacity="0" result="BackgroundImageFix"/>
<feColorMatrix in="SourceAlpha" type="matrix" values="0 0 0 0 0 0 0 0 0 0 0 0 0 0 0 0 0 0 127 0"/>
<feOffset dy="10"/>
<feGaussianBlur stdDeviation="5"/>
<feColorMatrix type="matrix" values="0 0 0 0 0 0 0 0 0 0 0 0 0 0 0 0 0 0 0.1 0"/>
<feBlend mode="normal" in2="BackgroundImageFix" result="effect1_dropShadow"/>
<feBlend mode="normal" in="SourceGraphic" in2="effect1_dropShadow" result="shape"/>
</filter>
<filter id="filter5_d" x="160.194" y="62.852" width="177.276" height="264.06" filterUnits="userSpaceOnUse" color-interpolation-filters="sRGB">
<feFlood flood-opacity="0" result="BackgroundImageFix"/>
<feColorMatrix in="SourceAlpha" type="matrix" values="0 0 0 0 0 0 0 0 0 0 0 0 0 0 0 0 0 0 127 0"/>
<feOffset dy="6"/>
<feGaussianBlur stdDeviation="7"/>
<feColorMatrix type="matrix" values="0 0 0 0 0.184314 0 0 0 0 0.396078 0 0 0 0 0.462745 0 0 0 0.2 0"/>
<feBlend mode="normal" in2="BackgroundImageFix" result="effect1_dropShadow"/>
<feBlend mode="normal" in="SourceGraphic" in2="effect1_dropShadow" result="shape"/>
</filter>
<filter id="filter6_d" x="0.00878906" y="215.507" width="190.904" height="173.985" filterUnits="userSpaceOnUse" color-interpolation-filters="sRGB">
<feFlood flood-opacity="0" result="BackgroundImageFix"/>
<feColorMatrix in="SourceAlpha" type="matrix" values="0 0 0 0 0 0 0 0 0 0 0 0 0 0 0 0 0 0 127 0"/>
<feOffset dy="13"/>
<feGaussianBlur stdDeviation="12"/>
<feColorMatrix type="matrix" values="0 0 0 0 0.184314 0 0 0 0 0.396078 0 0 0 0 0.462745 0 0 0 0.2 0"/>
<feBlend mode="normal" in2="BackgroundImageFix" result="effect1_dropShadow"/>
<feBlend mode="normal" in="SourceGraphic" in2="effect1_dropShadow" result="shape"/>
</filter>
<filter id="filter7_d" x="393.733" y="211.984" width="197.276" height="229.91" filterUnits="userSpaceOnUse" color-interpolation-filters="sRGB">
<feFlood flood-opacity="0" result="BackgroundImageFix"/>
<feColorMatrix in="SourceAlpha" type="matrix" values="0 0 0 0 0 0 0 0 0 0 0 0 0 0 0 0 0 0 127 0"/>
<feOffset dy="13"/>
<feGaussianBlur stdDeviation="12"/>
<feColorMatrix type="matrix" values="0 0 0 0 0.184314 0 0 0 0 0.396078 0 0 0 0 0.462745 0 0 0 0.2 0"/>
<feBlend mode="normal" in2="BackgroundImageFix" result="effect1_dropShadow"/>
<feBlend mode="normal" in="SourceGraphic" in2="effect1_dropShadow" result="shape"/>
</filter>
</defs>
</svg>
