<svg width="106" height="113" viewBox="0 0 106 113" fill="none" xmlns="http://www.w3.org/2000/svg">
<path d="M53 106C82.2711 106 106 82.2711 106 53C106 23.7289 82.2711 0 53 0C23.7289 0 0 23.7289 0 53C0 82.2711 23.7289 106 53 106Z" fill="#F0F4F7"/>
<path d="M69.5061 17.0011H36.8124C31.946 17.0011 28.001 20.9461 28.001 25.8125V103.189C28.001 108.055 31.946 112 36.8124 112H69.5061C74.3725 112 78.3175 108.055 78.3175 103.189V25.8125C78.3175 20.9461 74.3725 17.0011 69.5061 17.0011Z" fill="white" stroke="#B8C0CC" stroke-width="1.88" stroke-miterlimit="10"/>
<path d="M63.4204 71.0839V60.8357C63.4204 55.1368 58.7835 50.5003 53.0841 50.5003C47.4337 50.5003 42.8368 55.0972 42.8368 60.7475C42.8368 66.447 47.4733 71.0839 53.1723 71.0839H63.4204ZM63.8552 73.5857H53.1723C46.0824 73.5857 40.335 67.8384 40.335 60.7475C40.335 53.7067 46.0431 47.9985 53.0841 47.9985C60.1749 47.9985 65.9222 53.7459 65.9222 60.8357V71.5185C65.9222 72.66 64.9964 73.5857 63.8552 73.5857Z" fill="#D93464"/>
<path d="M37.3247 17L39.8775 21.9356C40.0976 22.3612 40.4305 22.7181 40.8398 22.9671C41.2491 23.2161 41.7191 23.3478 42.1982 23.3476H63.958C64.4256 23.3476 64.8846 23.2222 65.2871 22.9844C65.6897 22.7466 66.0211 22.4052 66.2467 21.9957L68.9987 17.0011" fill="#B8C0CC"/>
<path d="M28 95.9604H78.2824" stroke="#B8C0CC" stroke-width="1.88"/>
<path d="M53.1282 107.078C55.1339 107.078 56.7599 105.452 56.7599 103.447C56.7599 101.441 55.1339 99.815 53.1282 99.815C51.1225 99.815 49.4966 101.441 49.4966 103.447C49.4966 105.452 51.1225 107.078 53.1282 107.078Z" fill="#B8C0CC"/>
</svg>
