<svg width="118" height="113" viewBox="0 0 118 113" fill="none" xmlns="http://www.w3.org/2000/svg">
<path d="M52.9608 105.922C82.2102 105.922 105.922 82.2102 105.922 52.9608C105.922 23.7114 82.2102 0 52.9608 0C23.7114 0 0 23.7114 0 52.9608C0 82.2102 23.7114 105.922 52.9608 105.922Z" fill="#F0F4F7"/>
<path d="M74.9081 105.274H35.2125C33.8312 105.27 32.5076 104.719 31.531 103.742C30.5543 102.766 30.004 101.442 30 100.061V40.7405C30.004 39.3592 30.5543 38.0355 31.531 37.0587C32.5076 36.0819 33.8312 35.5312 35.2125 35.527H104.412C105.794 35.531 107.118 36.0816 108.094 37.0585C109.071 38.0353 109.622 39.359 109.626 40.7405V70.9879" fill="white"/>
<path d="M74.9081 105.274H35.2125C33.8312 105.27 32.5076 104.719 31.531 103.742C30.5543 102.766 30.004 101.442 30 100.061V40.7405C30.004 39.3592 30.5543 38.0355 31.531 37.0587C32.5076 36.0819 33.8312 35.5312 35.2125 35.527H104.412C105.794 35.531 107.118 36.0816 108.094 37.0585C109.071 38.0353 109.622 39.359 109.626 40.7405V70.9879" stroke="#B8C0CC" stroke-width="1.88" stroke-miterlimit="10" stroke-linecap="round"/>
<path d="M49.9067 29V42.3423" stroke="#B8C0CC" stroke-width="1.88" stroke-miterlimit="10" stroke-linecap="round"/>
<path d="M89.7207 29V42.3423" stroke="#B8C0CC" stroke-width="1.88" stroke-miterlimit="10" stroke-linecap="round"/>
<path d="M109.629 50.5041H30.001" stroke="#B8C0CC" stroke-width="1.88" stroke-miterlimit="10" stroke-linecap="round"/>
<path d="M107.52 94.7137L104.797 92.4761C104.934 91.5916 104.934 90.6917 104.797 89.8072L107.52 87.5695C107.618 87.4895 107.684 87.3779 107.706 87.2545C107.728 87.1312 107.705 87.0041 107.641 86.8959L105.161 82.6799C105.098 82.5723 104.997 82.4901 104.878 82.4476C104.759 82.4052 104.629 82.4051 104.509 82.4475L101.179 83.6421C100.46 83.0912 99.6662 82.6429 98.8197 82.3105L98.2066 78.8748C98.1848 78.7523 98.1196 78.6413 98.0225 78.5614C97.9254 78.4815 97.8027 78.4378 97.676 78.438H92.717C92.5903 78.4378 92.4676 78.4815 92.3705 78.5614C92.2734 78.6413 92.2082 78.7523 92.1863 78.8748L91.5733 82.3105C90.7271 82.6434 89.9328 83.0916 89.2139 83.6421L85.8836 82.4475C85.7644 82.4044 85.6336 82.4041 85.5143 82.4467C85.395 82.4892 85.2949 82.5718 85.2317 82.6799L82.7521 86.8959C82.6878 87.0041 82.6647 87.1312 82.6869 87.2545C82.7091 87.3779 82.7752 87.4895 82.8734 87.5695L85.5965 89.8072C85.4594 90.6917 85.4594 91.5915 85.5965 92.4761L82.8734 94.7137C82.7752 94.7937 82.7091 94.9053 82.6869 95.0287C82.6647 95.152 82.6878 95.2792 82.7521 95.3873L85.2317 99.6033C85.2952 99.7111 85.3954 99.7934 85.5146 99.8359C85.6338 99.8784 85.7644 99.8784 85.8836 99.8358L89.2139 98.6411C89.9325 99.192 90.7268 99.6404 91.5733 99.9728L92.1863 103.408C92.2082 103.531 92.2734 103.642 92.3704 103.722C92.4675 103.802 92.5902 103.846 92.717 103.846H97.676C97.8028 103.846 97.9256 103.802 98.0226 103.722C98.1197 103.642 98.1848 103.531 98.2066 103.408L98.8197 99.9728C99.6662 99.6404 100.46 99.192 101.179 98.6411L104.509 99.8358C104.629 99.8779 104.759 99.8778 104.878 99.8353C104.997 99.7929 105.097 99.7108 105.161 99.6033L107.641 95.384C107.704 95.2761 107.727 95.1498 107.705 95.0272C107.683 94.9045 107.617 94.7935 107.52 94.7137ZM95.1965 96.0936C94.1999 96.0936 93.2256 95.8035 92.3969 95.2599C91.5683 94.7163 90.9224 93.9437 90.5411 93.0398C90.1597 92.1358 90.0599 91.1412 90.2543 90.1816C90.4487 89.222 90.9286 88.3405 91.6334 87.6487C92.3381 86.9568 93.236 86.4857 94.2135 86.2948C95.1909 86.1039 96.2041 86.2019 97.1249 86.5763C98.0456 86.9507 98.8326 87.5848 99.3863 88.3983C99.94 89.2118 100.236 90.1683 100.236 91.1467C100.234 92.4581 99.7023 93.7154 98.7577 94.6427C97.8131 95.5701 96.5324 96.0918 95.1965 96.0936Z" fill="white"/>
<path d="M91.4643 111.566C97.0603 112.665 103.082 111.493 108.022 107.827C114.97 102.67 117.439 94.8431 116.501 87.3364M99.495 70.3608C93.9182 69.2851 87.9257 70.4627 83.0052 74.114C75.8315 79.4373 73.806 87.3364 74.7444 95.3122M99.4391 70.4474L95.1749 72.8691M91.293 111.513L95.6953 109.308M107.52 94.7137L104.797 92.4761C104.934 91.5916 104.934 90.6917 104.797 89.8072L107.52 87.5695C107.618 87.4895 107.684 87.3779 107.706 87.2545C107.728 87.1312 107.705 87.0041 107.641 86.8959L105.161 82.6799C105.098 82.5723 104.997 82.4901 104.878 82.4476C104.759 82.4052 104.629 82.4051 104.509 82.4475L101.179 83.6421C100.46 83.0912 99.6662 82.6429 98.8197 82.3105L98.2066 78.8748C98.1848 78.7523 98.1196 78.6413 98.0225 78.5614C97.9254 78.4815 97.8027 78.4378 97.676 78.438H92.717C92.5903 78.4378 92.4676 78.4815 92.3705 78.5614C92.2734 78.6413 92.2082 78.7523 92.1863 78.8748L91.5733 82.3105C90.7271 82.6434 89.9328 83.0916 89.2139 83.6421L85.8836 82.4475C85.7644 82.4044 85.6336 82.4041 85.5143 82.4467C85.395 82.4892 85.2949 82.5718 85.2317 82.6799L82.7521 86.8959C82.6878 87.0041 82.6647 87.1312 82.6869 87.2545C82.7091 87.3779 82.7752 87.4895 82.8734 87.5695L85.5965 89.8072C85.4594 90.6917 85.4594 91.5915 85.5965 92.4761L82.8734 94.7137C82.7752 94.7937 82.7091 94.9053 82.6869 95.0287C82.6647 95.152 82.6878 95.2792 82.7521 95.3873L85.2317 99.6033C85.2952 99.7111 85.3954 99.7934 85.5146 99.8359C85.6338 99.8784 85.7644 99.8784 85.8836 99.8358L89.2139 98.6411C89.9325 99.192 90.7268 99.6404 91.5733 99.9728L92.1863 103.408C92.2082 103.531 92.2734 103.642 92.3704 103.722C92.4675 103.802 92.5902 103.846 92.717 103.846H97.676C97.8028 103.846 97.9256 103.802 98.0226 103.722C98.1197 103.642 98.1848 103.531 98.2066 103.408L98.8197 99.9728C99.6662 99.6404 100.46 99.192 101.179 98.6411L104.509 99.8358C104.629 99.8779 104.759 99.8778 104.878 99.8353C104.997 99.7928 105.097 99.7108 105.161 99.6033L107.641 95.384C107.704 95.2761 107.727 95.1498 107.705 95.0272C107.683 94.9045 107.617 94.7935 107.52 94.7137ZM95.1965 96.0936C94.1999 96.0936 93.2256 95.8035 92.3969 95.2599C91.5683 94.7163 90.9224 93.9437 90.5411 93.0398C90.1597 92.1358 90.0599 91.1412 90.2543 90.1816C90.4487 89.222 90.9286 88.3405 91.6334 87.6487C92.3381 86.9568 93.236 86.4857 94.2135 86.2948C95.1909 86.1039 96.2041 86.2019 97.1249 86.5763C98.0456 86.9507 98.8326 87.5848 99.3863 88.3983C99.94 89.2118 100.236 90.1683 100.236 91.1467C100.234 92.4581 99.7023 93.7154 98.7577 94.6427C97.8131 95.5701 96.5324 96.0918 95.1965 96.0936Z" stroke="#D93464" stroke-width="1.88" stroke-linecap="round" stroke-linejoin="round"/>
</svg>
