<svg width="137" height="115" viewBox="0 0 137 115" fill="none" xmlns="http://www.w3.org/2000/svg">
<path d="M105.826 52.9121C105.826 42.447 102.723 32.2171 96.9089 23.5157C91.0948 14.8144 82.8311 8.03247 73.1627 4.02768C63.4942 0.0228916 52.8554 -1.0249 42.5914 1.01673C32.3275 3.05835 22.8995 8.09768 15.4996 15.4976C8.09968 22.8975 3.06029 32.3255 1.01866 42.5894C-1.02296 52.8534 0.0248901 63.4922 4.02968 73.1607C8.03447 82.8291 14.8163 91.0928 23.5177 96.9069C32.219 102.721 42.449 105.824 52.9141 105.824" fill="#F0F4F7"/>
<path d="M74.5 105.8H29.482C28.0731 105.795 26.7231 105.234 25.7269 104.237C24.7307 103.241 24.1693 101.891 24.1653 100.482V39.9753C24.1693 38.5664 24.7307 37.2162 25.7269 36.2199C26.7231 35.2235 28.0731 34.6619 29.482 34.6576H100.066C101.475 34.6616 102.825 35.2233 103.822 36.2196C104.818 37.216 105.38 38.5662 105.384 39.9753V70.8278" fill="white"/>
<path d="M74.5 105.8H29.482C28.0731 105.795 26.7231 105.234 25.7269 104.237C24.7307 103.241 24.1693 101.891 24.1653 100.482V39.9753C24.1693 38.5664 24.7307 37.2162 25.7269 36.2199C26.7231 35.2235 28.0731 34.6619 29.482 34.6576H100.066C101.475 34.6616 102.825 35.2233 103.822 36.2196C104.818 37.216 105.38 38.5662 105.384 39.9753V70.8278" stroke="#B8C0CC" stroke-width="1.88" stroke-miterlimit="10" stroke-linecap="round"/>
<path d="M123.081 93.5697V106.963L104.807 113.9L86.7777 106.918V93.4794" fill="white"/>
<path d="M123.081 93.5697V106.963L104.807 113.9L86.7777 106.918V93.4794" stroke="#D93464" stroke-width="1.88" stroke-linecap="round" stroke-linejoin="round"/>
<path d="M133.713 92.6743L133.713 103.287" stroke="#D93464" stroke-width="1.88" stroke-linecap="round" stroke-linejoin="round"/>
<path d="M131.809 105.667L132.932 104.264C133.332 103.763 134.093 103.763 134.494 104.264L135.616 105.667C135.758 105.844 135.835 106.064 135.835 106.291V109.186C135.835 109.738 135.388 110.186 134.835 110.186H132.59C132.038 110.186 131.59 109.738 131.59 109.186V106.291C131.59 106.064 131.667 105.844 131.809 105.667Z" fill="white" stroke="#D93464" stroke-width="1.88"/>
<path d="M76 92.3449L104.93 81L133.859 92.3449L104.93 103.69L76 92.3449Z" fill="white" stroke="#D93464" stroke-width="1.88" stroke-linecap="round" stroke-linejoin="round"/>
<path d="M44.4703 28V41.6092" stroke="#B8C0CC" stroke-width="1.88" stroke-miterlimit="10" stroke-linecap="round"/>
<path d="M85.0804 28V41.6092" stroke="#B8C0CC" stroke-width="1.88" stroke-miterlimit="10" stroke-linecap="round"/>
<path d="M105.387 49.9341H24.1663" stroke="#B8C0CC" stroke-width="1.88" stroke-miterlimit="10" stroke-linecap="round"/>
<path d="M46.89 67.8335C46.89 65.3218 44.8539 63.2857 42.3423 63.2857C39.8306 63.2857 37.7946 65.3218 37.7946 67.8335C37.7946 70.3451 39.8306 72.3812 42.3423 72.3812C44.8539 72.3812 46.89 70.3451 46.89 67.8335Z" stroke="#B8C0CC" stroke-width="1.88" stroke-miterlimit="10" stroke-linecap="round"/>
<path d="M69.3227 67.8335C69.3227 65.3218 67.2866 63.2857 64.775 63.2857C62.2634 63.2857 60.2273 65.3218 60.2273 67.8335C60.2273 70.3451 62.2634 72.3812 64.775 72.3812C67.2866 72.3812 69.3227 70.3451 69.3227 67.8335Z" stroke="#B8C0CC" stroke-width="1.88" stroke-miterlimit="10" stroke-linecap="round"/>
<path d="M91.2634 67.8335C91.2634 65.3218 89.2273 63.2857 86.7157 63.2857C84.2041 63.2857 82.168 65.3218 82.168 67.8335C82.168 70.3451 84.2041 72.3812 86.7157 72.3812C89.2273 72.3812 91.2634 70.3451 91.2634 67.8335Z" stroke="#B8C0CC" stroke-width="1.88" stroke-miterlimit="10" stroke-linecap="round"/>
<path d="M46.89 86.659C46.89 84.1473 44.8539 82.1113 42.3423 82.1113C39.8306 82.1113 37.7946 84.1473 37.7946 86.659C37.7946 89.1706 39.8306 91.2067 42.3423 91.2067C44.8539 91.2067 46.89 89.1706 46.89 86.659Z" stroke="#B8C0CC" stroke-width="1.88" stroke-miterlimit="10" stroke-linecap="round"/>
<path d="M69.3247 86.659C69.3247 84.1473 67.2886 82.1113 64.777 82.1113C62.2653 82.1113 60.2292 84.1473 60.2292 86.659C60.2292 89.1706 62.2653 91.2067 64.777 91.2067C67.2886 91.2067 69.3247 89.1706 69.3247 86.659Z" stroke="#B8C0CC" stroke-width="1.88" stroke-miterlimit="10" stroke-linecap="round"/>
</svg>
