<svg width="104" height="69" viewBox="0 0 104 69" fill="none" xmlns="http://www.w3.org/2000/svg">
<path d="M51.669 37.0833H12.7622V49.1533" stroke="#B8C0CC" stroke-width="1.88" stroke-linecap="round" stroke-linejoin="round"/>
<path d="M51.6692 37.0833H90.623V49.1743" stroke="#B8C0CC" stroke-width="1.88" stroke-linecap="round" stroke-linejoin="round"/>
<path d="M100.741 49.1536H80.4108C79.5291 49.1536 78.8145 49.8683 78.8145 50.7499V65.5335C78.8145 66.4152 79.5291 67.1299 80.4108 67.1299H100.741C101.623 67.1299 102.337 66.4152 102.337 65.5335V50.7499C102.337 49.8683 101.623 49.1536 100.741 49.1536Z" stroke="#B8C0CC" stroke-width="1.88" stroke-linecap="round" stroke-linejoin="round"/>
<path d="M22.9265 49.1536H2.59631C1.71469 49.1536 1 49.8683 1 50.7499V65.5335C1 66.4152 1.71469 67.1299 2.59631 67.1299H22.9265C23.8081 67.1299 24.5228 66.4152 24.5228 65.5335V50.7499C24.5228 49.8683 23.8081 49.1536 22.9265 49.1536Z" stroke="#B8C0CC" stroke-width="1.88" stroke-linecap="round" stroke-linejoin="round"/>
<path d="M51.6692 48.9222V28.2012V48.9222Z" fill="white"/>
<path d="M51.6692 48.9222V28.2012" stroke="#D93464" stroke-width="1.88" stroke-linecap="round"/>
<path d="M61.8342 49.1536H41.504C40.6224 49.1536 39.9077 49.8683 39.9077 50.7499V65.5335C39.9077 66.4152 40.6224 67.1299 41.504 67.1299H61.8342C62.7158 67.1299 63.4305 66.4152 63.4305 65.5335V50.7499C63.4305 49.8683 62.7158 49.1536 61.8342 49.1536Z" stroke="#B8C0CC" stroke-width="1.88" stroke-linecap="round" stroke-linejoin="round"/>
<path d="M66.9168 1.12988H36.4206C35.0984 1.12988 34.0266 2.2017 34.0266 3.52385V25.7009C34.0266 27.023 35.0984 28.0948 36.4206 28.0948H66.9168C68.239 28.0948 69.3108 27.023 69.3108 25.7009V3.52385C69.3108 2.2017 68.239 1.12988 66.9168 1.12988Z" stroke="#B8C0CC" stroke-width="1.88" stroke-linecap="round" stroke-linejoin="round"/>
</svg>
