<svg width="52" height="68" viewBox="0 0 52 68" fill="none" xmlns="http://www.w3.org/2000/svg">
<path d="M25.9271 41.1606C35.3769 41.1606 43.0375 33.474 43.0375 23.992C43.0375 14.5101 35.3769 6.82349 25.9271 6.82349C16.4773 6.82349 8.81665 14.5101 8.81665 23.992C8.81665 33.474 16.4773 41.1606 25.9271 41.1606Z" stroke="#B8C0CC" stroke-width="2" stroke-miterlimit="10"/>
<path d="M4.2771 16.7504C7.29972 7.6651 15.8483 1.10498 25.9281 1.10498C36.0213 1.10498 44.5832 7.67846 47.5925 16.7905" stroke="#B8C0CC" stroke-width="2" stroke-miterlimit="10"/>
<path d="M3.27695 30.766C2.0253 30.766 1 29.7372 1 28.4813V19.2891C1 18.0332 2.0253 17.0044 3.27695 17.0044C4.52861 17.0044 5.55391 18.0332 5.55391 19.2891V28.4813C5.55391 29.7372 4.52861 30.766 3.27695 30.766Z" stroke="#B8C0CC" stroke-width="2" stroke-miterlimit="10"/>
<path d="M48.723 30.766C47.4713 30.766 46.446 29.7372 46.446 28.4813V19.2891C46.446 18.0332 47.4713 17.0044 48.723 17.0044C49.9747 17.0044 50.9999 18.0332 50.9999 19.2891V28.4813C50.9999 29.7372 49.9747 30.766 48.723 30.766Z" stroke="#B8C0CC" stroke-width="2" stroke-miterlimit="10"/>
<path d="M49.7179 67.0002C49.7936 67.0002 49.8549 66.9389 49.8549 66.8632V66.8632C49.8549 55.1326 40.3454 45.6277 28.6148 45.6367C26.8672 45.638 25.1195 45.6392 23.3719 45.64C11.6505 45.6456 2.13208 55.1412 2.13208 66.8627V66.8627C2.13208 66.9387 2.19367 67.0002 2.26964 67.0002H49.7179Z" stroke="#B8C0CC" stroke-width="2" stroke-miterlimit="10"/>
<path d="M42.1045 37.593C42.1045 37.593 48.7223 37.3391 48.7223 30.7656" stroke="#B8C0CC" stroke-width="2" stroke-miterlimit="10"/>
<path d="M42.1046 36.4575V38.7289C42.1046 39.9848 41.0793 41.0135 39.8277 41.0135H32.6373C31.3856 41.0135 30.3604 39.9848 30.3604 38.7289V36.4575C30.3604 35.2016 31.3856 34.1729 32.6373 34.1729H39.8277C41.0793 34.1729 42.1046 35.2016 42.1046 36.4575Z" fill="white" stroke="#D93464" stroke-width="2" stroke-miterlimit="10"/>
</svg>
