<svg width="68" height="69" viewBox="0 0 68 69" fill="none" xmlns="http://www.w3.org/2000/svg">
<path d="M34 67.1299C52.2254 67.1299 67 52.3553 67 34.1299C67 15.9045 52.2254 1.12988 34 1.12988C15.7746 1.12988 1 15.9045 1 34.1299C1 52.3553 15.7746 67.1299 34 67.1299Z" stroke="#B8C0CC" stroke-width="1.88" stroke-linecap="round" stroke-linejoin="round"/>
<path d="M30.6471 25.0425L19.375 43.2216H41.6474L30.6471 25.0425Z" stroke="#D93464" stroke-width="1.88" stroke-linecap="round" stroke-linejoin="round"/>
<path d="M41.6473 43.2214H47.135L39.4012 30.4395L36.7209 34.7629" stroke="#D93464" stroke-width="1.88" stroke-linecap="round" stroke-linejoin="round"/>
<path d="M45.4034 26.1911C47.2541 26.1911 48.7543 24.6908 48.7543 22.8402C48.7543 20.9895 47.2541 19.4893 45.4034 19.4893C43.5527 19.4893 42.0525 20.9895 42.0525 22.8402C42.0525 24.6908 43.5527 26.1911 45.4034 26.1911Z" stroke="#D93464" stroke-width="1.88" stroke-linecap="round" stroke-linejoin="round"/>
<path d="M17.9036 48.9966H49.6155" stroke="#D93464" stroke-width="1.88" stroke-linecap="round" stroke-linejoin="round"/>
</svg>
