<svg width="67" height="74" viewBox="0 0 67 74" fill="none" xmlns="http://www.w3.org/2000/svg">
<mask id="path-1-inside-1" fill="white">
<path fill-rule="evenodd" clip-rule="evenodd" d="M51.3841 14.6759L51.3841 14.6897C55.3868 16.1017 58.2547 19.9117 58.2547 24.3902C58.2547 30.0708 53.6406 34.6759 47.9489 34.6759C47.9488 34.6759 47.9488 34.6759 47.9488 34.6759L19.3215 34.6758C12.9973 34.6758 7.87061 29.5591 7.87061 23.2473C7.87061 18.9546 10.2419 15.2147 13.7484 13.2612C13.6486 12.7961 13.5961 12.3135 13.5961 11.8187C13.5961 8.03162 16.6722 4.96157 20.4667 4.96157C22.2691 4.96157 23.9094 5.6543 25.135 6.78756C27.6983 2.93199 32.0869 0.390137 37.0704 0.390137C44.9756 0.390137 51.3841 6.78607 51.3841 14.6759Z"/>
</mask>
<path d="M51.3841 14.6897L49.5041 14.6887C49.5036 15.4862 50.0065 16.1973 50.7587 16.4626L51.3841 14.6897ZM51.3841 14.6759L53.2641 14.6769V14.6759H51.3841ZM47.9488 34.6759V36.5559V34.6759ZM19.3215 34.6758L19.3215 32.7958H19.3215V34.6758ZM13.7484 13.2612L14.6634 14.9036C15.3853 14.5014 15.7599 13.6749 15.5866 12.8669L13.7484 13.2612ZM25.135 6.78756L23.8586 8.16786C24.263 8.54182 24.811 8.71961 25.358 8.65429C25.9049 8.58896 26.3956 8.28708 26.7006 7.8284L25.135 6.78756ZM53.2641 14.6907L53.2641 14.6769L49.5041 14.6748L49.5041 14.6887L53.2641 14.6907ZM60.1347 24.3902C60.1347 19.0878 56.7386 14.585 52.0095 12.9168L50.7587 16.4626C54.035 17.6184 56.3747 20.7355 56.3747 24.3902H60.1347ZM47.9489 36.5559C54.6754 36.5559 60.1347 31.1125 60.1347 24.3902H56.3747C56.3747 29.029 52.6058 32.7959 47.9489 32.7959V36.5559ZM47.9488 36.5559C47.9488 36.5559 47.9488 36.5559 47.9488 36.5559C47.9488 36.5559 47.9488 36.5559 47.9488 36.5559C47.9488 36.5559 47.9488 36.5559 47.9488 36.5559C47.9488 36.5559 47.9488 36.5559 47.9488 36.5559C47.9488 36.5559 47.9488 36.5559 47.9488 36.5559C47.9488 36.5559 47.9488 36.5559 47.9488 36.5559H47.9488H47.9488H47.9488H47.9488H47.9488C47.9488 36.5559 47.9488 36.5559 47.9488 36.5559C47.9488 36.5559 47.9488 36.5559 47.9488 36.5559C47.9488 36.5559 47.9488 36.5559 47.9488 36.5559C47.9488 36.5559 47.9488 36.5559 47.9488 36.5559C47.9488 36.5559 47.9488 36.5559 47.9488 36.5559C47.9488 36.5559 47.9488 36.5559 47.9488 36.5559C47.9488 36.5559 47.9488 36.5559 47.9488 36.5559C47.9488 36.5559 47.9488 36.5559 47.9488 36.5559C47.9488 36.5559 47.9488 36.5559 47.9488 36.5559C47.9488 36.5559 47.9488 36.5559 47.9488 36.5559H47.9488H47.9488H47.9488H47.9488H47.9489C47.9489 36.5559 47.9489 36.5559 47.9489 36.5559C47.9489 36.5559 47.9489 36.5559 47.9489 36.5559C47.9489 36.5559 47.9489 36.5559 47.9489 36.5559C47.9489 36.5559 47.9489 36.5559 47.9489 36.5559V32.7959C47.9489 32.7959 47.9489 32.7959 47.9489 32.7959C47.9489 32.7959 47.9489 32.7959 47.9489 32.7959C47.9489 32.7959 47.9489 32.7959 47.9489 32.7959C47.9489 32.7959 47.9489 32.7959 47.9489 32.7959H47.9488H47.9488H47.9488H47.9488H47.9488C47.9488 32.7959 47.9488 32.7959 47.9488 32.7959C47.9488 32.7959 47.9488 32.7959 47.9488 32.7959C47.9488 32.7959 47.9488 32.7959 47.9488 32.7959C47.9488 32.7959 47.9488 32.7959 47.9488 32.7959C47.9488 32.7959 47.9488 32.7959 47.9488 32.7959C47.9488 32.7959 47.9488 32.7959 47.9488 32.7959C47.9488 32.7959 47.9488 32.7959 47.9488 32.7959C47.9488 32.7959 47.9488 32.7959 47.9488 32.7959C47.9488 32.7959 47.9488 32.7959 47.9488 32.7959C47.9488 32.7959 47.9488 32.7959 47.9488 32.7959H47.9488H47.9488H47.9488H47.9488H47.9488C47.9488 32.7959 47.9488 32.7959 47.9488 32.7959C47.9488 32.7959 47.9488 32.7959 47.9488 32.7959C47.9488 32.7959 47.9488 32.7959 47.9488 32.7959C47.9488 32.7959 47.9488 32.7959 47.9488 32.7959C47.9488 32.7959 47.9488 32.7959 47.9488 32.7959C47.9488 32.7959 47.9488 32.7959 47.9488 32.7959V36.5559ZM47.9488 32.7959L19.3215 32.7958L19.3215 36.5559L47.9488 36.5559L47.9488 32.7959ZM5.99061 23.2473C5.99061 30.6009 11.9625 36.5559 19.3215 36.5559V32.7958C14.0322 32.7958 9.75061 28.5174 9.75061 23.2473H5.99061ZM12.8335 11.6189C8.75651 13.8902 5.99061 18.2442 5.99061 23.2473H9.75061C9.75061 19.6651 11.7273 16.5393 14.6634 14.9036L12.8335 11.6189ZM11.7161 11.8187C11.7161 12.4469 11.7828 13.0617 11.9102 13.6556L15.5866 12.8669C15.5144 12.5306 15.4761 12.1802 15.4761 11.8187H11.7161ZM20.4667 3.08157C15.6373 3.08157 11.7161 6.98987 11.7161 11.8187H15.4761C15.4761 9.07337 17.707 6.84157 20.4667 6.84157V3.08157ZM26.4114 5.40725C24.8518 3.9651 22.7602 3.08157 20.4667 3.08157V6.84157C21.778 6.84157 22.9671 7.3435 23.8586 8.16786L26.4114 5.40725ZM37.0704 -1.48986C31.4322 -1.48986 26.4669 1.38841 23.5694 5.74671L26.7006 7.8284C28.9296 4.47557 32.7417 2.27014 37.0704 2.27014V-1.48986ZM53.2641 14.6759C53.2641 5.74432 46.0105 -1.48986 37.0704 -1.48986V2.27014C43.9408 2.27014 49.5041 7.82782 49.5041 14.6759H53.2641Z" fill="#B8C0CC" mask="url(#path-1-inside-1)"/>
<rect x="1" y="30.1045" width="64.125" height="36.5714" rx="3" fill="white" stroke="#D93464" stroke-width="1.88"/>
<path d="M26.9341 66.7581L26.1919 72.3901H39.8919L39.1936 66.6758" stroke="#D93464" stroke-width="1.88" stroke-miterlimit="10" stroke-linecap="round" stroke-linejoin="round"/>
<path d="M29.6272 19.8186V38.6757L25.6194 34.6757" stroke="#D93464" stroke-width="1.88" stroke-linecap="round" stroke-linejoin="round"/>
<path d="M36.4978 38.6758L36.4978 19.8186L40.5056 23.8186" stroke="#D93464" stroke-width="1.88" stroke-linecap="round" stroke-linejoin="round"/>
<path d="M1 60.9617L65.125 60.9617" stroke="#D93464" stroke-width="1.88"/>
</svg>
