<svg width="70" height="75" viewBox="0 0 70 75" fill="none" xmlns="http://www.w3.org/2000/svg">
<path d="M68.625 73.3901H1.125L4.61721 37.3901H65.2355L68.625 73.3901Z" stroke="#B8C0CC" stroke-width="2" stroke-miterlimit="10" stroke-linejoin="round"/>
<path d="M48.414 48.6401L32.4478 26.3379L31.5 16.812L34.561 9.02533L38.8471 4.64071L43.2095 2.52417L48.2487 1.39014L51.8571 2.14585L59.0509 5.32113L63.337 10.8398L65.25 17.5686L64.2276 28.5954L48.414 48.6401Z" fill="white"/>
<path d="M65.25 19.3451C65.25 32.1026 48.1373 48.6401 48.1373 48.6401C48.1373 48.6401 31.5 32.1026 31.5 19.3451C31.5 10.2117 37.6796 1.39014 48.1373 1.39014C58.5951 1.39014 65.25 10.2117 65.25 19.3451Z" stroke="#D93464" stroke-width="1.88"/>
<circle cx="48.375" cy="18.2651" r="5.625" stroke="#D93464" stroke-width="1.88"/>
<path d="M26.9047 60.2062L8.06675 33.5687L6.94849 22.1912L10.5601 12.8909L15.6171 7.65393L20.7641 5.12595L26.7097 3.77148L30.967 4.67409L39.4547 8.46661L44.5117 15.058L46.7688 23.0949L45.5625 36.2651L26.9047 60.2062Z" fill="white"/>
<path d="M47.25 25.5776C47.25 40.7651 26.7148 60.4526 26.7148 60.4526C26.7148 60.4526 6.75 40.7651 6.75 25.5776C6.75 14.7045 14.1655 4.20264 26.7148 4.20264C39.2641 4.20264 47.25 14.7045 47.25 25.5776Z" stroke="#D93464" stroke-width="1.88"/>
<circle cx="27" cy="23.8901" r="6.75" stroke="#D93464" stroke-width="1.88"/>
</svg>
