<svg width="106" height="106" viewBox="0 0 106 106" fill="none" xmlns="http://www.w3.org/2000/svg">
<path d="M53 106C82.2711 106 106 82.2711 106 53C106 23.7289 82.2711 0 53 0C23.7289 0 0 23.7289 0 53C0 82.2711 23.7289 106 53 106Z" fill="#F0F4F7"/>
<path d="M86.6177 83.5322V100.322C86.614 101.561 86.1199 102.749 85.2431 103.626C84.3663 104.503 83.178 104.997 81.9381 105H46.9911C45.751 104.998 44.5623 104.504 43.6854 103.627C42.8086 102.75 42.3149 101.562 42.3125 100.322V30.3075C42.3162 29.0677 42.8103 27.8798 43.6869 27.0031C44.5635 26.1263 45.7513 25.6319 46.9911 25.6279H81.9381C83.1781 25.6316 84.3663 26.1259 85.2431 27.0027C86.1199 27.8795 86.614 29.0675 86.6177 30.3075V44.7172" fill="white"/>
<path d="M86.6177 83.5321V100.322C86.614 101.561 86.1199 102.749 85.2431 103.626C84.3663 104.503 83.178 104.997 81.9381 105H46.9911C45.751 104.998 44.5623 104.504 43.6854 103.627C42.8086 102.75 42.3149 101.562 42.3125 100.322V30.3075C42.3162 29.0677 42.8103 27.8798 43.6869 27.0031C44.5635 26.1263 45.7513 25.6319 46.9911 25.6279H81.9381C83.1781 25.6316 84.3663 26.1259 85.2431 27.0027C86.1199 27.8795 86.614 29.0675 86.6177 30.3075V44.7172" stroke="#B8C0CC" stroke-width="1.88" stroke-miterlimit="10" stroke-linecap="round"/>
<path d="M63.8463 47.8639H19.8482C18.6524 47.8639 17.683 48.8333 17.683 50.0291V77.2398C17.683 78.4357 18.6524 79.4051 19.8482 79.4051H63.8463C65.0421 79.4051 66.0115 78.4357 66.0115 77.2398V50.0291C66.0115 48.8333 65.0421 47.8639 63.8463 47.8639Z" fill="white" stroke="#D93464" stroke-width="2" stroke-miterlimit="10" stroke-linecap="round"/>
<path d="M23.4575 71.9409H48.883" stroke="#D93464" stroke-width="2" stroke-miterlimit="10" stroke-linecap="round"/>
<path d="M64.5245 99.5904C66.6259 99.5904 68.3294 97.8869 68.3294 95.7855C68.3294 93.6842 66.6259 91.9807 64.5245 91.9807C62.4231 91.9807 60.7196 93.6842 60.7196 95.7855C60.7196 97.8869 62.4231 99.5904 64.5245 99.5904Z" fill="#B8C0CC"/>
<path d="M58.6012 31.9672H70.5066" stroke="#B8C0CC" stroke-width="2" stroke-miterlimit="10" stroke-linecap="round"/>
<path d="M75.8455 52.9274H101.777" stroke="#B8C0CC" stroke-width="1.88" stroke-linecap="round" stroke-linejoin="round"/>
<path d="M97.381 47.3821L102.623 52.6242L97.381 57.8664" stroke="#B8C0CC" stroke-width="1.88" stroke-linecap="round" stroke-linejoin="round"/>
<path d="M84.9073 77.9799C85.2654 77.9799 85.6089 77.8376 85.8621 77.5843C86.1154 77.3311 86.2577 76.9876 86.2577 76.6295V75.8106C87.4255 75.7405 88.5227 75.2275 89.3253 74.3763C90.128 73.5251 90.5758 72.3997 90.5772 71.2298V71.0951C90.5754 69.8789 90.0914 68.7131 89.2315 67.8531C88.3715 66.9931 87.2055 66.5092 85.9893 66.5073H83.6955C83.218 66.4726 82.7712 66.2585 82.4452 65.9079C82.1191 65.5572 81.9379 65.0961 81.9379 64.6173C81.9379 64.1385 82.1191 63.6776 82.4452 63.3269C82.7712 62.9763 83.218 62.7621 83.6955 62.7273H87.0446C87.2419 62.7276 87.4309 62.8062 87.5703 62.9456C87.7098 63.0851 87.7884 63.2742 87.7886 63.4715V63.5034C87.786 63.8511 87.9178 64.1865 88.1564 64.4395C88.3951 64.6924 88.7223 64.8435 89.0697 64.8611C89.417 64.8787 89.7577 64.7616 90.0207 64.5341C90.2838 64.3065 90.4488 63.9862 90.4814 63.64V63.619C90.5012 63.1671 90.4319 62.7158 90.2771 62.2908C90.1224 61.8657 89.8854 61.4753 89.5798 61.1418C89.2741 60.8084 88.9058 60.5385 88.4957 60.3474C88.0857 60.1564 87.6422 60.0481 87.1903 60.0286H87.0426H86.2586V59.2187C86.2636 59.0384 86.2322 58.8589 86.1666 58.6908C86.101 58.5228 86.0023 58.3696 85.8765 58.2402C85.7506 58.1109 85.6003 58.0081 85.4341 57.9379C85.2678 57.8678 85.0891 57.8317 84.9087 57.8317C84.7283 57.8317 84.5497 57.8678 84.3835 57.9379C84.2173 58.0081 84.0668 58.1109 83.941 58.2402C83.8151 58.3696 83.7165 58.5228 83.6508 58.6908C83.5852 58.8589 83.5539 59.0384 83.5588 59.2187V60.0315C82.9563 60.0403 82.3616 60.1679 81.8083 60.4066C81.2551 60.6453 80.7542 60.9907 80.3345 61.423C79.9147 61.8552 79.5842 62.3659 79.3618 62.9259C79.1394 63.4859 79.0295 64.0843 79.0383 64.6867C79.0472 65.2892 79.1746 65.884 79.4133 66.4372C79.652 66.9904 79.9974 67.4913 80.4297 67.9111C80.8619 68.3308 81.3727 68.6613 81.9327 68.8837C82.4927 69.1061 83.091 69.216 83.6934 69.2072H85.9874C86.2362 69.2072 86.4826 69.2562 86.7125 69.3515C86.9424 69.4467 87.1514 69.5863 87.3273 69.7622C87.5033 69.9382 87.6429 70.147 87.7381 70.3769C87.8333 70.6068 87.8824 70.8533 87.8824 71.1022V71.2378C87.8808 71.7393 87.6805 72.2198 87.3253 72.5739C86.9701 72.9279 86.4889 73.1267 85.9874 73.1267H82.5845C82.4868 73.1268 82.3901 73.1077 82.2998 73.0705C82.2095 73.0332 82.1275 72.9785 82.0584 72.9095C81.9893 72.8405 81.9345 72.7585 81.8971 72.6683C81.8597 72.5781 81.8405 72.4813 81.8405 72.3837V72.3708V72.2311C81.8399 71.8777 81.7008 71.5385 81.4529 71.2864C81.2051 71.0343 80.8684 70.8894 80.515 70.8829C80.1616 70.8764 79.8197 71.0087 79.5627 71.2514C79.3057 71.4942 79.1542 71.828 79.1406 72.1812V72.3218C79.1323 72.7739 79.2131 73.2233 79.3785 73.6441C79.5439 74.065 79.7906 74.4491 80.1045 74.7746C80.4184 75.1 80.7933 75.3604 81.2079 75.5409C81.6224 75.7215 82.0686 75.8185 82.5207 75.8266H83.5559V76.6364C83.5561 76.9944 83.6986 77.3376 83.9518 77.5907C84.205 77.8437 84.5483 77.9859 84.9063 77.9859L84.9073 77.9799Z" fill="#B8C0CC"/>
<path opacity="0.8" d="M27.1856 62.449C29.2446 62.449 30.9137 60.7799 30.9137 58.721C30.9137 56.662 29.2446 54.9929 27.1856 54.9929C25.1266 54.9929 23.4575 56.662 23.4575 58.721C23.4575 60.7799 25.1266 62.449 27.1856 62.449Z" fill="#D93464"/>
<path opacity="0.5" d="M33.129 62.449C35.1879 62.449 36.8571 60.7799 36.8571 58.721C36.8571 56.662 35.1879 54.9929 33.129 54.9929C31.07 54.9929 29.4009 56.662 29.4009 58.721C29.4009 60.7799 31.07 62.449 33.129 62.449Z" fill="#D93464"/>
</svg>
