<svg width="54" height="53" viewBox="0 0 54 53" fill="none" xmlns="http://www.w3.org/2000/svg">
<path d="M0 52.4851L2.35403e-06 25.5581C3.82075e-06 8.7808 6.13334 0.391469 18.4 0.390137C19.754 0.390137 21.828 0.479135 24.622 0.657136V11.0811C16.1387 11.0811 11.8997 15.0031 11.905 22.8471L12.044 27.5821H20.835L20.835 52.4851H0ZM50.9 27.5851H42.113L41.978 22.8471C41.9773 15.4545 45.8557 11.5331 53.613 11.0831V0.659141C51.1803 0.485807 49.4673 0.398473 48.474 0.397139C36.2073 0.397138 30.074 8.78647 30.074 25.5651L30.074 52.4901L50.913 52.4901L50.913 27.5901L50.9 27.5851Z" fill="url(#paint0_linear)"/>
<defs>
<linearGradient id="paint0_linear" x1="-6.42093e-07" y1="25.9493" x2="44.355" y2="46.1975" gradientUnits="userSpaceOnUse">
<stop stop-color="#9D007B"/>
<stop offset="1" stop-color="#FF5555"/>
</linearGradient>
</defs>
</svg>
