<svg width="106" height="110" viewBox="0 0 106 110" fill="none" xmlns="http://www.w3.org/2000/svg">
<path d="M53 106C82.2711 106 106 82.2711 106 53C106 23.7289 82.2711 0 53 0C23.7289 0 0 23.7289 0 53C0 82.2711 23.7289 106 53 106Z" fill="#F0F4F7"/>
<path d="M77.238 32.8006C73.848 26.4479 67.9284 24.7995 62.4058 24.7995C49.98 24.7995 44.289 33.4523 43.3555 43.0166C43.3555 43.0747 43.1008 45.3017 39.6587 68.9101C39.3236 71.9965 37.9569 74.8796 35.7795 77.0927L30.0183 82.8539C28.991 83.8803 28.2912 85.1884 28.0075 86.6126C27.7238 88.0368 27.8689 89.5132 28.4245 90.8549C28.9801 92.1966 29.9211 93.3433 31.1286 94.1501C32.3361 94.9568 33.7558 95.3873 35.208 95.387H89.6047C91.0569 95.3873 92.4765 94.9568 93.684 94.1501C94.8915 93.3433 95.8326 92.1966 96.3882 90.8549C96.9437 89.5132 97.0889 88.0368 96.8052 86.6126C96.5215 85.1884 95.8217 83.8803 94.7944 82.8539L89.0322 77.0927C86.8361 74.8928 85.4663 72.0027 85.1539 68.9101C84.7919 65.9553 84.6987 65.1731 84.6987 65.1731" fill="white"/>
<path d="M77.238 32.8006C73.848 26.4479 67.9284 24.7995 62.4058 24.7995C49.98 24.7995 44.289 33.4523 43.3555 43.0166C43.3555 43.0747 43.1008 45.3017 39.6587 68.9101C39.3236 71.9965 37.9569 74.8796 35.7795 77.0927L30.0183 82.8539C28.991 83.8803 28.2912 85.1884 28.0075 86.6126C27.7238 88.0368 27.8689 89.5132 28.4245 90.8549C28.9801 92.1966 29.9211 93.3433 31.1286 94.1501C32.3361 94.9568 33.7558 95.3873 35.208 95.387H89.6047C91.0569 95.3873 92.4765 94.9568 93.684 94.1501C94.8915 93.3433 95.8326 92.1966 96.3882 90.8549C96.9437 89.5132 97.0889 88.0368 96.8052 86.6126C96.5215 85.1884 95.8217 83.8803 94.7944 82.8539L89.0322 77.0927C86.8361 74.8929 85.4663 72.0027 85.1539 68.9101C84.7919 65.9553 84.6987 65.1731 84.6987 65.1731" stroke="#B8C0CC" stroke-width="1.88" stroke-miterlimit="10"/>
<path d="M44.3642 21.8748C41.5077 23.3223 39.0612 25.465 37.2499 28.1058C35.4385 30.7466 34.3205 33.8006 33.9988 36.9867C33.9988 37.0308 34.0991 36.1845 32.1941 51.9983" stroke="#B8C0CC" stroke-width="1.88" stroke-miterlimit="10" stroke-linecap="round"/>
<path d="M49.9821 96.3636C50.0417 99.6173 51.3747 102.718 53.6949 105C56.0151 107.282 59.1375 108.563 62.3918 108.569C65.6461 108.574 68.7728 107.303 71.1007 105.029C73.4286 102.755 74.7721 99.6592 74.8427 96.4057V96.3636" fill="white"/>
<path d="M49.9821 96.3636C50.0417 99.6173 51.3747 102.718 53.6949 105C56.0151 107.282 59.1375 108.563 62.3918 108.569C65.6461 108.574 68.7728 107.303 71.1007 105.029C73.4286 102.755 74.7721 99.6592 74.8427 96.4057V96.3636" stroke="#B8C0CC" stroke-width="2" stroke-miterlimit="10"/>
<path d="M81.366 65.9141C90.5084 65.9141 97.9197 58.5027 97.9197 49.3604C97.9197 40.218 90.5084 32.8066 81.366 32.8066C72.2236 32.8066 64.8123 40.218 64.8123 49.3604C64.8123 58.5027 72.2236 65.9141 81.366 65.9141Z" fill="white" stroke="#D93464" stroke-width="1.88" stroke-miterlimit="10"/>
<path d="M81.3648 57.5491C85.8878 57.5491 89.5544 53.8824 89.5544 49.3594C89.5544 44.8364 85.8878 41.1698 81.3648 41.1698C76.8418 41.1698 73.1752 44.8364 73.1752 49.3594C73.1752 53.8824 76.8418 57.5491 81.3648 57.5491Z" fill="#CB1053" fill-opacity="0.4"/>
</svg>
