<svg width="106" height="106" viewBox="0 0 106 106" fill="none" xmlns="http://www.w3.org/2000/svg">
<path d="M53 106C82.2711 106 106 82.2711 106 53C106 23.7289 82.2711 0 53 0C23.7289 0 0 23.7289 0 53C0 82.2711 23.7289 106 53 106Z" fill="#F0F4F7"/>
<path d="M48.8599 86.3931C48.8622 86.8672 49.0516 87.3212 49.3867 87.6565C49.7219 87.9918 50.1758 88.1813 50.6499 88.184H94.3809C94.855 88.1813 95.3089 87.9918 95.644 87.6565C95.9792 87.3212 96.1685 86.8672 96.1709 86.3931V32.193L82.752 18.724H50.6519C50.1779 18.7266 49.7242 18.9161 49.389 19.2512C49.0539 19.5863 48.8646 20.0401 48.8619 20.514V23.774" fill="white"/>
<path d="M48.8599 86.3931C48.8622 86.8672 49.0516 87.3212 49.3867 87.6565C49.7219 87.9918 50.1758 88.1813 50.6499 88.184H94.3809C94.855 88.1813 95.3089 87.9918 95.644 87.6565C95.9792 87.3212 96.1685 86.8672 96.1709 86.3931V32.193L82.752 18.724H50.6519C50.1779 18.7266 49.7242 18.9161 49.389 19.2512C49.0539 19.5863 48.8646 20.0401 48.8619 20.514V23.774" stroke="#B8C0CC" stroke-width="1.88" stroke-miterlimit="10" stroke-linecap="round"/>
<path d="M71.2711 56.632C71.2711 61.3753 69.8646 66.0123 67.2293 69.9563C64.594 73.9003 60.8484 76.9742 56.4661 78.7894C52.0838 80.6046 47.2615 81.0796 42.6093 80.1542C37.957 79.2288 33.6837 76.9447 30.3296 73.5906C26.9755 70.2365 24.6914 65.9632 23.766 61.3109C22.8406 56.6587 23.3155 51.8364 25.1308 47.4541C26.946 43.0718 30.0199 39.3262 33.9639 36.6909C37.9079 34.0556 42.5447 32.649 47.2881 32.649V56.632H71.2711Z" fill="white" stroke="#B8C0CC" stroke-width="1.88" stroke-miterlimit="10" stroke-linecap="round"/>
<path d="M55.239 24.6951C61.5995 24.6953 67.6994 27.2222 72.1969 31.7198C76.6944 36.2175 79.2211 42.3175 79.2211 48.678H55.239V24.6951Z" stroke="#D93464" stroke-width="1.88" stroke-miterlimit="10" stroke-linecap="round"/>
<path d="M82.752 18.726V29.313C82.752 30.058 83.0478 30.7725 83.5746 31.2993C84.1014 31.8261 84.8159 32.1219 85.5609 32.1219H96.1709" stroke="#B8C0CC" stroke-width="1.88" stroke-miterlimit="10" stroke-linecap="round"/>
<path d="M83.8721 39.033H91.3371" stroke="#B8C0CC" stroke-width="1.88" stroke-miterlimit="10" stroke-linecap="round"/>
<path d="M83.8721 46.22H91.3371" stroke="#B8C0CC" stroke-width="1.88" stroke-miterlimit="10" stroke-linecap="round"/>
<path d="M83.8721 53.454H91.3371" stroke="#B8C0CC" stroke-width="1.88" stroke-miterlimit="10" stroke-linecap="round"/>
<path d="M89.282 72.552C89.2357 72.4083 89.1482 72.2815 89.0303 72.1873C88.9124 72.093 88.7694 72.0355 88.619 72.022L84.432 71.642L82.777 67.767C82.7177 67.6281 82.6189 67.5097 82.4928 67.4265C82.3668 67.3433 82.2191 67.299 82.068 67.299C81.917 67.299 81.7693 67.3433 81.6432 67.4265C81.5172 67.5097 81.4184 67.6281 81.359 67.767L79.703 71.641L75.516 72.021C75.3658 72.0349 75.2229 72.0925 75.105 72.1868C74.9872 72.281 74.8995 72.4077 74.8529 72.5513C74.8063 72.6948 74.8028 72.8489 74.8428 72.9944C74.8828 73.1399 74.9646 73.2705 75.078 73.37L78.2431 76.145L77.3101 80.256C77.2758 80.4032 77.2856 80.5573 77.3384 80.699C77.3912 80.8406 77.4846 80.9636 77.6068 81.0525C77.7291 81.1414 77.8749 81.1922 78.0259 81.1987C78.1769 81.2052 78.3266 81.167 78.4561 81.089L82.068 78.9301L85.678 81.089C85.8076 81.1664 85.9571 81.2041 86.1079 81.1973C86.2587 81.1905 86.4041 81.1395 86.5263 81.0508C86.6484 80.9621 86.7418 80.8395 86.7949 80.6982C86.8481 80.557 86.8586 80.4032 86.8251 80.256L85.892 76.145L89.0561 73.37C89.1698 73.2709 89.252 73.1404 89.2921 72.995C89.3323 72.8495 89.3288 72.6955 89.282 72.552Z" fill="#D93464"/>
</svg>
