<svg width="125" height="106" viewBox="0 0 125 106" fill="none" xmlns="http://www.w3.org/2000/svg">
<path d="M52.86 105.72C82.0538 105.72 105.72 82.0538 105.72 52.86C105.72 23.6662 82.0538 0 52.86 0C23.6662 0 0 23.6662 0 52.86C0 82.0538 23.6662 105.72 52.86 105.72Z" fill="#F0F4F7"/>
<path d="M78.2484 71.1399H36.2725C30.6195 71.1399 26 66.5067 26 60.8368C26 55.167 30.6195 50.5338 36.2725 50.5338H78.2484" stroke="#B8C0CC" stroke-width="2" stroke-miterlimit="10"/>
<path d="M68.1868 60.9849H118.706C121.49 60.9849 123.768 63.2698 123.768 66.0624C123.768 68.855 121.49 71.1399 118.706 71.1399H108.686H66.7102C61.0572 71.1399 56.4377 66.5067 56.4377 60.8368C56.4377 55.167 61.0572 50.5338 66.7102 50.5338H108.686H118.558C121.427 50.5338 123.768 52.8821 123.768 55.7594C123.768 58.6366 121.427 60.9849 118.558 60.9849H66.4571" fill="white"/>
<path d="M68.1868 60.9849H118.706C121.49 60.9849 123.768 63.2698 123.768 66.0624C123.768 68.855 121.49 71.1399 118.706 71.1399H108.686H66.7102C61.0572 71.1399 56.4377 66.5067 56.4377 60.8368C56.4377 55.167 61.0572 50.5338 66.7102 50.5338H108.686H118.558C121.427 50.5338 123.768 52.8821 123.768 55.7594C123.768 58.6366 121.427 60.9849 118.558 60.9849H66.4571" stroke="#B8C0CC" stroke-width="2" stroke-miterlimit="10" stroke-linecap="round"/>
<path d="M68.1868 81.6122H118.706C121.49 81.6122 123.768 83.8971 123.768 86.6897C123.768 89.4823 121.49 91.7672 118.706 91.7672H108.686H66.7102C61.0572 91.7672 56.4377 87.134 56.4377 81.4641C56.4377 75.7943 61.0572 71.1611 66.7102 71.1611H108.686H118.558C121.427 71.1611 123.768 73.5094 123.768 76.3867C123.768 79.2639 121.427 81.6122 118.558 81.6122H66.4571" fill="white"/>
<path d="M68.1868 81.6122H118.706C121.49 81.6122 123.768 83.8971 123.768 86.6897C123.768 89.4823 121.49 91.7672 118.706 91.7672H108.686H66.7102C61.0572 91.7672 56.4377 87.134 56.4377 81.4641C56.4377 75.7943 61.0572 71.1611 66.7102 71.1611H108.686H118.558C121.427 71.1611 123.768 73.5094 123.768 76.3867C123.768 79.2639 121.427 81.6122 118.558 81.6122H66.4571" stroke="#B8C0CC" stroke-width="2" stroke-miterlimit="10" stroke-linecap="round"/>
<path d="M78.2484 91.7672H36.2725C30.6195 91.7672 26 87.134 26 81.4641C26 75.7943 30.6195 71.1611 36.2725 71.1611H78.2484" stroke="#B8C0CC" stroke-width="2" stroke-miterlimit="10"/>
<path d="M39.9464 34.4036V23H29.2145V34.4036L17.4094 56.2947C15.728 62.0469 19.6303 63.8513 21.7916 64.0345H47.5035C52.3686 62.7888 52.3329 58.3556 51.7068 56.2947L39.9464 34.4036Z" fill="white" stroke="#D93464" stroke-width="1.88" stroke-linecap="round"/>
<path d="M25.4482 22.06C24.9291 22.06 24.5082 22.4809 24.5082 23C24.5082 23.5191 24.9291 23.94 25.4482 23.94L25.4482 22.06ZM43.5517 23.94C44.0708 23.94 44.4917 23.5191 44.4917 23C44.4917 22.4809 44.0708 22.06 43.5517 22.06L43.5517 23.94ZM25.4482 23.94L43.5517 23.94L43.5517 22.06L25.4482 22.06L25.4482 23.94Z" fill="#D93464"/>
<path d="M21.4607 48.6659C23.2125 49.693 28.1214 51.4361 33.2853 49.0451C38.4048 46.6748 40.8513 45.537 46.1973 46.5799" stroke="#D93464" stroke-width="1.88"/>
</svg>
