<svg width="68" height="75" viewBox="0 0 68 75" fill="none" xmlns="http://www.w3.org/2000/svg">
<path d="M33.9145 34.051C32.5889 34.051 31.5144 35.1255 31.5144 36.4511C31.5143 37.4094 32.0775 38.2342 32.8896 38.6189V41.5365C32.8896 42.1024 33.3483 42.5612 33.9143 42.5612C34.4803 42.5612 34.939 42.1025 34.939 41.5365V38.6189C35.7513 38.2342 36.3145 37.4094 36.3145 36.4511C36.3145 35.1255 35.24 34.051 33.9145 34.051Z" fill="#B8C0CC"/>
<path d="M1.28096 13.5837C8.25517 13.5837 14.6482 8.35788 14.6482 1.39014H53.0891C53.0891 8.35788 59.4882 13.5837 66.469 13.5837C66.469 31.003 68.7637 55.9708 33.8595 73.3901C-1.01156 55.9708 1.28096 31.003 1.28096 13.5837Z" stroke="#B8C0CC" stroke-width="1.88" stroke-linejoin="round"/>
<path d="M42.875 27.2651V21.6401C42.875 16.6696 38.8456 12.6401 33.875 12.6401C28.9044 12.6401 24.875 16.6696 24.875 21.6401V27.2651" stroke="#D93464" stroke-width="1.88"/>
<rect x="20.19" y="28.2051" width="27.37" height="20.62" rx="2.06" stroke="#D93464" stroke-width="1.88"/>
</svg>
