<svg width="119" height="108" viewBox="0 0 119 108" fill="none" xmlns="http://www.w3.org/2000/svg">
<path d="M97.5909 106C107.01 98.1286 113.774 87.0402 116.958 75.1665C120.143 63.2928 119.591 50.7226 115.38 39.175C111.169 27.6274 103.504 17.6663 93.4322 10.6542C83.3607 3.64218 71.3751 -0.078396 59.1147 0.0012526C46.8542 0.0809012 34.9176 3.95686 24.9376 11.0992C14.9575 18.2415 7.42123 28.3013 3.35962 39.9027C-0.701997 51.504 -1.09065 64.0804 2.24678 75.9117C5.58421 87.743 12.4848 98.2516 22.0047 106" fill="#F0F4F7"/>
<path d="M81.9897 83.5103L80.2344 79.3296L81.9897 74.9414C83.3061 74.2831 86.9264 72.1987 87.5846 71.7599C88.1332 71.4308 88.572 70.7725 88.572 70.1143L88.4623 66.0552C88.4623 65.397 88.1332 64.8484 87.4749 64.4096C87.0361 64.1902 83.4158 61.8864 81.8799 61.2282L80.1247 56.8399C80.6732 55.4138 81.6605 51.3546 81.8799 50.6964C82.0994 50.0382 81.8799 49.3799 81.4411 48.9411L78.5888 46.0888C78.15 45.65 77.4917 45.4305 76.7238 45.5402C76.1753 45.65 72.0064 46.747 70.5803 47.2955L66.192 45.5403C65.5338 44.2238 63.4494 40.6035 63.0106 39.9453C62.6815 39.3967 62.0232 38.9579 61.365 38.9579L57.5253 39.0676C56.8671 39.0676 56.2088 39.287 55.77 39.9453C55.5506 40.3841 53.2468 44.0044 52.5885 45.5402L48.2003 47.2955C46.7741 46.747 42.715 45.7597 42.0568 45.5402C41.5083 45.4305 40.85 45.65 40.4112 46.0888L37.5589 48.9411C37.1201 49.3799 36.9006 50.0382 37.0103 50.8061C37.1201 51.3546 38.2171 55.5235 38.7656 56.9496L37.0103 61.3379C35.6939 61.9961 32.0736 64.0805 31.4154 64.5193C30.8668 64.8484 30.428 65.5067 30.428 66.1649L30.428 70.1143C30.428 70.7725 30.7571 71.3211 31.4154 71.7599C31.8542 71.9793 35.4745 74.2831 37.0103 74.9414L38.7656 79.3296L37.0103 83.5103" stroke="#B8C0CC" stroke-width="1.88" stroke-linecap="round"/>
<path d="M82.9032 86.821C87.0015 86.821 90.3238 83.4987 90.3238 79.4005C90.3238 75.3022 87.0015 71.9799 82.9032 71.9799C78.805 71.9799 75.4827 75.3022 75.4827 79.4005C75.4827 83.4987 78.805 86.821 82.9032 86.821Z" fill="white" stroke="#B8C0CC" stroke-width="1.88" stroke-miterlimit="10" stroke-linecap="round"/>
<path d="M36.0967 86.821C40.195 86.821 43.5172 83.4987 43.5172 79.4005C43.5172 75.3022 40.195 71.9799 36.0967 71.9799C31.9984 71.9799 28.6761 75.3022 28.6761 79.4005C28.6761 83.4987 31.9984 86.821 36.0967 86.821Z" fill="white" stroke="#B8C0CC" stroke-width="1.88" stroke-miterlimit="10" stroke-linecap="round"/>
<path d="M95.03 105.087C95.5823 105.087 96.03 104.639 96.03 104.087V99.4946C96.0595 97.8404 95.7418 96.1972 95.0954 94.6609C94.449 93.1245 93.4868 91.7257 92.2649 90.546C91.0431 89.3663 89.586 88.4293 87.9787 87.7897C86.3714 87.1502 84.646 86.8209 82.9031 86.8209C81.1603 86.8209 79.435 87.1502 77.8277 87.7897C76.2204 88.4293 74.7632 89.3663 73.5414 90.546C72.3195 91.7257 71.3573 93.1245 70.7109 94.6609C70.0645 96.1972 69.7469 97.8404 69.7764 99.4946V104.087" fill="white"/>
<path d="M96.03 99.4946V104.087C96.03 104.639 95.5823 105.087 95.03 105.087H70.7764C70.2241 105.087 69.7764 104.639 69.7764 104.087V99.4946C69.7469 97.8404 70.0645 96.1972 70.7109 94.6609C71.3573 93.1245 72.3195 91.7257 73.5414 90.546C74.7632 89.3663 76.2204 88.4293 77.8277 87.7897C79.435 87.1502 81.1603 86.8209 82.9031 86.8209C84.646 86.8209 86.3714 87.1502 87.9787 87.7897C89.586 88.4293 91.0431 89.3663 92.2649 90.546C93.4868 91.7257 94.449 93.1245 95.0954 94.6609C95.7418 96.1972 96.0595 97.8404 96.03 99.4946Z" stroke="#B8C0CC" stroke-width="1.88" stroke-miterlimit="10" stroke-linecap="round"/>
<path d="M48.2235 105.087C48.7757 105.087 49.2235 104.639 49.2235 104.087V99.4946C49.253 97.8404 48.9353 96.1972 48.2889 94.6609C47.6425 93.1245 46.6803 91.7257 45.4584 90.546C44.2365 89.3663 42.7795 88.4293 41.1722 87.7897C39.5649 87.1502 37.8395 86.8209 36.0966 86.8209C34.3538 86.8209 32.6285 87.1502 31.0212 87.7897C29.4139 88.4293 27.9567 89.3663 26.7348 90.546C25.513 91.7257 24.5508 93.1245 23.9044 94.6609C23.258 96.1972 22.9403 97.8404 22.9699 99.4946V104.087" fill="white"/>
<path d="M49.2235 99.4946V104.087C49.2235 104.639 48.7757 105.087 48.2235 105.087H23.9699C23.4176 105.087 22.9699 104.639 22.9699 104.087V99.4946C22.9403 97.8404 23.258 96.1972 23.9044 94.6609C24.5508 93.1245 25.513 91.7257 26.7348 90.546C27.9567 89.3663 29.4139 88.4293 31.0212 87.7897C32.6285 87.1502 34.3538 86.8209 36.0966 86.8209C37.8395 86.8209 39.5649 87.1502 41.1722 87.7897C42.7795 88.4293 44.2365 89.3663 45.4584 90.546C46.6803 91.7257 47.6425 93.1245 48.2889 94.6609C48.9353 96.1972 49.253 97.8404 49.2235 99.4946Z" stroke="#B8C0CC" stroke-width="1.88" stroke-miterlimit="10" stroke-linecap="round"/>
<path d="M59.4999 78.8297C65.1745 78.8297 69.7746 74.2296 69.7746 68.5551C69.7746 62.8806 65.1745 58.2805 59.4999 58.2805C53.8254 58.2805 49.2253 62.8806 49.2253 68.5551C49.2253 74.2296 53.8254 78.8297 59.4999 78.8297Z" fill="white" stroke="#D93464" stroke-width="1.88" stroke-miterlimit="10" stroke-linecap="round"/>
<path d="M77.7632 105.087V97.048C77.8043 94.6702 77.3623 92.3081 76.4629 90.0996C75.5636 87.8911 74.2249 85.8803 72.5249 84.1845C70.8249 82.4887 68.7977 81.1417 66.5614 80.2224C64.3252 79.303 61.9246 78.8296 59.4998 78.8296C57.075 78.8296 54.6746 79.303 52.4383 80.2224C50.202 81.1417 48.1747 82.4887 46.4747 84.1845C44.7747 85.8803 43.436 87.8911 42.5366 90.0996C41.6373 92.3081 41.1954 94.6702 41.2365 97.048V105.087" fill="white"/>
<path d="M77.7632 105.087V97.048C77.8043 94.6702 77.3623 92.3081 76.4629 90.0996C75.5636 87.8911 74.2249 85.8803 72.5249 84.1845C70.8249 82.4887 68.7977 81.1417 66.5614 80.2224C64.3252 79.303 61.9246 78.8296 59.4998 78.8296C57.075 78.8296 54.6746 79.303 52.4383 80.2224C50.202 81.1417 48.1747 82.4887 46.4747 84.1845C44.7747 85.8803 43.436 87.8911 42.5366 90.0996C41.6373 92.3081 41.1954 94.6702 41.2365 97.048V105.087H77.7632Z" stroke="#D93464" stroke-width="1.88" stroke-miterlimit="10" stroke-linecap="round"/>
</svg>
