<svg width="86" height="75" viewBox="0 0 86 75" fill="none" xmlns="http://www.w3.org/2000/svg">
<path d="M15.6549 1.39014H68.9451L84.125 18.3533L43.5922 73.3901L2 19.5397L15.6549 1.39014Z" stroke="#B8C0CC" stroke-width="1.88" stroke-miterlimit="10"/>
<path d="M24.5 29.0151C24.5 26.806 26.2909 25.0151 28.5 25.0151H32.375V36.2651H28.5C26.2909 36.2651 24.5 34.4743 24.5 32.2651V29.0151Z" stroke="#D93464" stroke-width="1.88"/>
<path d="M61.625 29.0151C61.625 26.806 59.8341 25.0151 57.625 25.0151H53.75V36.2651H57.625C59.8341 36.2651 61.625 34.4743 61.625 32.2651V29.0151Z" stroke="#D93464" stroke-width="1.88"/>
<path d="M56 25.0151V19.1401C56 13.065 51.0751 8.14014 45 8.14014H41.125C35.0499 8.14014 30.125 13.065 30.125 19.1401V25.0151" stroke="#D93464" stroke-width="1.88"/>
<path d="M56 36.2651V39.3901C56 43.2561 52.866 46.3901 49 46.3901H48.125" stroke="#D93464" stroke-width="1.88"/>
<rect x="40.25" y="44.1401" width="7.875" height="4.5" rx="2.25" stroke="#D93464" stroke-width="1.88"/>
</svg>
