<svg width="66" height="69" viewBox="0 0 66 69" fill="none" xmlns="http://www.w3.org/2000/svg">
<path d="M57.2041 1H41.5961C40.7961 1.00237 40.0295 1.32124 39.4639 1.8869C38.8982 2.45256 38.5794 3.21908 38.577 4.01904V10.04C38.5783 10.1347 38.6037 10.2276 38.6508 10.3098C38.6978 10.3919 38.765 10.4607 38.8461 10.5096C38.9271 10.5586 39.0194 10.5861 39.114 10.5895C39.2087 10.5929 39.3027 10.5721 39.3871 10.5291C40.188 10.1602 41.0907 10.0759 41.946 10.29C42.8827 10.5212 43.7022 11.0873 44.25 11.8815C44.7978 12.6756 45.0357 13.6429 44.9191 14.6005C44.8024 15.5582 44.3391 16.4399 43.6167 17.0793C42.8943 17.7188 41.9628 18.0715 40.998 18.071C40.4365 18.071 39.8818 17.9478 39.373 17.71C39.29 17.6667 39.1972 17.6454 39.1035 17.6483C39.0099 17.6511 38.9184 17.6779 38.8381 17.7262C38.7578 17.7745 38.6913 17.8426 38.6449 17.924C38.5985 18.0054 38.5737 18.0973 38.573 18.191V24.231C38.5751 25.0311 38.8939 25.7977 39.4596 26.3635C40.0253 26.9292 40.792 27.2479 41.592 27.25H47.6171C47.7125 27.251 47.8061 27.2766 47.8887 27.3243C47.9713 27.3721 48.0401 27.4403 48.0886 27.5225C48.1371 27.6047 48.1636 27.698 48.1654 27.7934C48.1672 27.8888 48.1443 27.983 48.099 28.067C47.7062 28.8722 47.6056 29.7888 47.8141 30.66C48.036 31.6028 48.5967 32.4311 49.3895 32.9874C50.1824 33.5437 51.152 33.7891 52.114 33.677C53.076 33.5649 53.9634 33.103 54.6071 32.3793C55.2507 31.6556 55.606 30.7206 55.6051 29.752C55.6051 29.1672 55.4713 28.5902 55.214 28.065C55.1691 27.9809 55.1466 27.8867 55.1488 27.7914C55.151 27.6962 55.1777 27.6031 55.2263 27.5211C55.275 27.4392 55.344 27.3712 55.4266 27.3237C55.5093 27.2762 55.6027 27.2508 55.698 27.25H61.8101C62.6099 27.2476 63.3763 26.9288 63.9418 26.3631C64.5073 25.7974 64.8259 25.0309 64.828 24.231V8.62903C64.8219 6.60842 64.0169 4.67224 62.5886 3.24298C61.1603 1.81372 59.2247 1.00738 57.2041 1V1Z" stroke="#D93464" stroke-width="1.88" stroke-linecap="round" stroke-linejoin="round"/>
<path d="M53.5319 59.5V43.892C53.5293 43.0925 53.2104 42.3265 52.645 41.7612C52.0795 41.196 51.3134 40.8774 50.5139 40.875H44.489C44.3942 40.8761 44.3011 40.9013 44.2188 40.9483C44.1365 40.9953 44.0676 41.0626 44.0185 41.1437C43.9694 41.2248 43.942 41.3171 43.9385 41.4118C43.9351 41.5065 43.9559 41.6006 43.999 41.685C44.3682 42.4857 44.4528 43.3886 44.239 44.244C44.007 45.18 43.4405 45.9987 42.6464 46.5458C41.8524 47.0929 40.8856 47.3305 39.9284 47.2139C38.9712 47.0973 38.0897 46.6345 37.4503 45.9128C36.8108 45.1911 36.4574 44.2603 36.4569 43.296C36.4567 42.7343 36.5803 42.1795 36.8189 41.671C36.8611 41.5882 36.8815 41.4959 36.8781 41.403C36.8747 41.3101 36.8477 41.2196 36.7995 41.1401C36.7513 41.0606 36.6836 40.9946 36.6028 40.9486C36.5221 40.9026 36.4309 40.8779 36.338 40.877H27.2789V49.92C27.278 50.0156 27.2524 50.1093 27.2047 50.192C27.1569 50.2748 27.0885 50.3438 27.0062 50.3923C26.9238 50.4408 26.8303 50.4672 26.7348 50.4689C26.6393 50.4706 26.5449 50.4476 26.4609 50.402C25.6561 50.0093 24.7399 49.9085 23.869 50.117C22.9262 50.3389 22.0977 50.8996 21.5414 51.6925C20.9852 52.4854 20.7398 53.455 20.8519 54.4171C20.964 55.3791 21.4259 56.2664 22.1496 56.91C22.8733 57.5537 23.8084 57.9089 24.7769 57.908C25.3613 57.9078 25.9379 57.7744 26.463 57.518C26.5469 57.4729 26.641 57.4503 26.7363 57.4523C26.8315 57.4542 26.9246 57.4807 27.0067 57.5291C27.0887 57.5776 27.1568 57.6464 27.2045 57.7289C27.2522 57.8114 27.2778 57.9047 27.2789 58V67.13H45.9039C47.9255 67.1242 49.8627 66.3184 51.2921 64.8887C52.7214 63.459 53.5266 61.5216 53.5319 59.5V59.5Z" stroke="#B8C0CC" stroke-width="1.88" stroke-linecap="round" stroke-linejoin="round"/>
<path d="M8.63 67.074H27.255V58.03C27.2538 57.9355 27.2285 57.8429 27.1816 57.7608C27.1347 57.6787 27.0678 57.61 26.9869 57.561C26.9061 57.512 26.8141 57.4843 26.7196 57.4807C26.6252 57.477 26.5314 57.4974 26.447 57.54C25.6461 57.9097 24.7427 57.9945 23.887 57.78C22.9502 57.5489 22.1306 56.9826 21.5829 56.1884C21.0351 55.3941 20.7971 54.4268 20.9139 53.4691C21.0307 52.5113 21.4943 51.6295 22.2169 50.9902C22.9395 50.3508 23.8712 49.9983 24.8361 49.999C25.3976 49.9993 25.9522 50.1225 26.4611 50.36C26.5439 50.4022 26.6361 50.4227 26.729 50.4193C26.8219 50.4159 26.9124 50.3888 26.9919 50.3406C27.0715 50.2924 27.1373 50.2248 27.1833 50.144C27.2294 50.0632 27.2541 49.972 27.255 49.879V40.82H18.2111C18.1158 40.8188 18.0223 40.793 17.9398 40.7452C17.8574 40.6974 17.7887 40.6292 17.7402 40.5471C17.6918 40.465 17.6653 40.3718 17.6633 40.2765C17.6614 40.1812 17.684 40.087 17.729 40.003C18.1216 39.1978 18.2224 38.2813 18.014 37.41C17.7922 36.4673 17.2315 35.6389 16.4386 35.0826C15.6457 34.5263 14.676 34.2809 13.714 34.393C12.752 34.5051 11.8648 34.967 11.2211 35.6907C10.5774 36.4144 10.2222 37.3495 10.223 38.318C10.2229 38.9028 10.3567 39.4799 10.614 40.005C10.6589 40.0891 10.6814 40.1833 10.6792 40.2786C10.677 40.3738 10.6503 40.4669 10.6017 40.5489C10.553 40.6308 10.484 40.6988 10.4014 40.7463C10.3187 40.7938 10.2253 40.8192 10.13 40.82H1V59.445C1.00607 61.4667 1.81196 63.4038 3.24158 64.8332C4.67119 66.2626 6.60836 67.0682 8.63 67.074V67.074Z" stroke="#B8C0CC" stroke-width="1.88" stroke-linecap="round" stroke-linejoin="round"/>
<path d="M1.05505 22.1859V40.8159H10.099C10.1935 40.8147 10.2862 40.7895 10.3683 40.7426C10.4503 40.6956 10.5191 40.6286 10.5681 40.5478C10.6171 40.467 10.6448 40.375 10.6484 40.2806C10.6521 40.1861 10.6316 40.0923 10.589 40.0079C10.2192 39.2073 10.1346 38.3043 10.349 37.4489C10.5802 36.5123 11.1463 35.6927 11.9404 35.145C12.7346 34.5972 13.7019 34.3592 14.6595 34.4759C15.6172 34.5926 16.4989 35.0558 17.1383 35.7783C17.7777 36.5007 18.1305 37.4322 18.13 38.3969C18.1298 38.9584 18.0066 39.5131 17.769 40.0219C17.7266 40.1048 17.7059 40.1972 17.7092 40.2902C17.7125 40.3833 17.7396 40.4739 17.7878 40.5536C17.836 40.6333 17.9037 40.6993 17.9846 40.7454C18.0655 40.7915 18.1569 40.8161 18.25 40.817H27.3091V31.7739C27.31 31.6785 27.3356 31.585 27.3833 31.5024C27.431 31.4198 27.4994 31.3509 27.5815 31.3024C27.6637 31.2539 27.757 31.2275 27.8524 31.2256C27.9478 31.2238 28.042 31.2466 28.126 31.2919C28.9312 31.6846 29.8478 31.7853 30.719 31.577C31.6618 31.3551 32.4901 30.7943 33.0464 30.0015C33.6027 29.2086 33.8482 28.239 33.7361 27.2769C33.624 26.3149 33.1621 25.4276 32.4384 24.7839C31.7146 24.1403 30.7796 23.7851 29.811 23.7859C29.2264 23.7862 28.6495 23.9196 28.124 24.176C28.0401 24.2211 27.9461 24.2437 27.8508 24.2418C27.7556 24.2399 27.6624 24.2134 27.5804 24.1649C27.4985 24.1164 27.4305 24.0476 27.3829 23.9651C27.3354 23.8826 27.3099 23.7891 27.3091 23.6939V17.5819C27.3064 16.7822 26.9874 16.0161 26.4218 15.4508C25.8561 14.8855 25.0897 14.5671 24.29 14.5649H8.68408C6.66391 14.5707 4.72794 15.3752 3.29871 16.803C1.86947 18.2307 1.06297 20.1657 1.05505 22.1859V22.1859Z" stroke="#B8C0CC" stroke-width="1.88" stroke-linecap="round" stroke-linejoin="round"/>
</svg>
